<?xml version="1.0" standalone="no"?>
<!DOCTYPE svg PUBLIC "-//W3C//DTD SVG 20010904//EN"
 "http://www.w3.org/TR/2001/REC-SVG-20010904/DTD/svg10.dtd">
<svg version="1.0" xmlns="http://www.w3.org/2000/svg"
 width="3213.000000pt" height="3213.000000pt" viewBox="0 0 3213.000000 3213.000000"
 preserveAspectRatio="xMidYMid meet">
<metadata>
Created by potrace 1.14, written by Peter Selinger 2001-2017
</metadata>
<g transform="translate(0.000000,3213.000000) scale(0.100000,-0.100000)"
fill="#000000" stroke="none">
<path d="M10723 24286 c-13 -6 -23 -16 -23 -22 0 -6 -9 -19 -20 -29 -11 -10
-20 -23 -20 -28 0 -6 -7 -19 -16 -29 -17 -18 -49 -73 -81 -140 -10 -21 -21
-38 -25 -38 -5 0 -8 -22 -8 -49 0 -44 5 -54 47 -102 26 -30 60 -65 75 -78 16
-13 28 -29 28 -35 0 -6 29 -41 65 -76 36 -35 65 -69 65 -75 0 -6 29 -40 65
-75 36 -35 65 -69 65 -75 0 -6 32 -42 70 -80 39 -38 70 -74 70 -80 0 -6 29
-40 65 -75 36 -35 65 -70 65 -76 0 -6 7 -17 15 -24 22 -18 18 -30 -10 -30 -14
0 -25 -4 -25 -10 0 -5 -11 -10 -24 -10 -14 0 -28 -4 -31 -10 -3 -5 -21 -10
-40 -10 -19 0 -37 -4 -40 -10 -3 -5 -17 -10 -30 -10 -13 0 -26 -4 -29 -9 -4
-5 -29 -12 -56 -16 -28 -4 -50 -11 -50 -16 0 -5 -11 -9 -24 -9 -14 0 -28 -4
-31 -10 -3 -5 -17 -10 -30 -10 -13 0 -27 -4 -30 -10 -3 -5 -14 -10 -25 -10
-16 0 -45 -12 -122 -51 -10 -5 -27 -9 -37 -9 -11 0 -23 -4 -26 -10 -3 -5 -17
-10 -30 -10 -13 0 -27 -4 -30 -10 -3 -5 -14 -10 -24 -10 -10 0 -32 -7 -47 -15
-16 -8 -37 -15 -46 -15 -9 0 -20 -4 -23 -10 -3 -5 -15 -10 -25 -10 -11 0 -35
-9 -55 -20 -20 -11 -42 -20 -50 -20 -8 0 -30 -9 -50 -20 -20 -11 -44 -20 -55
-20 -11 0 -20 -4 -20 -10 0 -5 -9 -10 -20 -10 -11 0 -20 -4 -20 -10 0 -5 -8
-10 -19 -10 -10 0 -32 -7 -47 -15 -16 -8 -36 -15 -46 -15 -18 0 -101 -41 -106
-52 -2 -5 -12 -8 -22 -8 -10 0 -44 -13 -75 -30 -31 -16 -63 -30 -70 -30 -7 0
-30 -9 -52 -19 -21 -11 -56 -27 -78 -37 -22 -9 -108 -50 -190 -90 -83 -41
-156 -74 -163 -74 -7 0 -12 -4 -12 -10 0 -5 -9 -10 -19 -10 -11 0 -21 -4 -23
-8 -4 -10 -270 -142 -285 -142 -6 0 -13 -4 -15 -8 -1 -4 -29 -20 -60 -36 -32
-15 -60 -31 -63 -36 -3 -5 -43 -27 -88 -50 -116 -58 -161 -84 -165 -92 -2 -5
-11 -8 -19 -8 -9 0 -23 -8 -32 -18 -9 -10 -33 -26 -53 -35 -20 -10 -40 -22
-43 -27 -3 -6 -25 -19 -48 -31 -61 -30 -85 -44 -105 -62 -10 -10 -24 -17 -30
-17 -7 0 -12 -4 -12 -10 0 -5 -8 -10 -18 -10 -10 0 -24 -9 -32 -20 -8 -11 -22
-20 -31 -20 -9 0 -19 -6 -22 -14 -6 -14 -24 -26 -103 -65 -22 -11 -47 -27 -54
-36 -7 -8 -17 -15 -23 -15 -6 0 -23 -12 -38 -26 -27 -26 -55 -44 -94 -63 -12
-5 -27 -16 -34 -25 -7 -9 -18 -16 -23 -16 -5 0 -23 -13 -41 -30 -18 -16 -37
-30 -42 -30 -6 0 -17 -9 -25 -20 -8 -11 -19 -20 -25 -20 -7 0 -22 -11 -35 -25
-13 -14 -29 -25 -35 -25 -6 0 -24 -13 -40 -30 -16 -16 -34 -30 -40 -30 -6 0
-29 -18 -50 -40 -21 -22 -44 -40 -50 -40 -6 0 -22 -11 -35 -25 -13 -14 -29
-25 -35 -25 -6 0 -29 -18 -50 -40 -21 -22 -44 -40 -50 -40 -6 0 -35 -25 -65
-55 -30 -30 -59 -55 -65 -55 -6 0 -40 -29 -75 -65 -35 -36 -69 -65 -74 -65 -5
0 -61 -52 -123 -115 -63 -63 -118 -115 -122 -115 -11 0 -231 -220 -231 -231 0
-5 -47 -56 -105 -114 -58 -57 -105 -108 -105 -113 0 -5 -29 -39 -65 -76 -36
-37 -65 -70 -65 -74 0 -4 -20 -28 -45 -52 -25 -24 -45 -49 -45 -55 0 -6 -13
-24 -30 -40 -17 -16 -30 -34 -30 -40 0 -6 -16 -26 -35 -45 -19 -19 -35 -39
-35 -45 0 -6 -13 -24 -30 -40 -16 -16 -30 -34 -30 -40 0 -7 -9 -20 -20 -30
-11 -10 -20 -23 -20 -30 0 -6 -12 -22 -26 -36 -14 -13 -30 -33 -35 -44 -14
-31 -32 -58 -51 -76 -10 -9 -18 -23 -18 -30 0 -8 -9 -21 -20 -29 -11 -8 -20
-21 -20 -29 0 -7 -8 -21 -18 -30 -10 -9 -26 -32 -36 -51 -27 -55 -42 -78 -58
-97 -8 -10 -22 -35 -32 -55 -9 -20 -21 -40 -26 -43 -5 -3 -26 -39 -46 -81 -20
-41 -41 -80 -48 -87 -18 -20 -36 -56 -36 -71 0 -8 -4 -16 -8 -18 -11 -5 -102
-192 -102 -211 0 -8 -4 -19 -10 -22 -5 -3 -10 -15 -10 -25 0 -10 -3 -20 -7
-22 -11 -4 -53 -87 -53 -104 0 -7 -9 -29 -20 -49 -11 -20 -20 -41 -20 -48 0
-18 -24 -67 -32 -67 -5 0 -8 -10 -8 -22 0 -13 -7 -36 -15 -52 -8 -15 -15 -37
-15 -47 0 -10 -5 -21 -10 -24 -5 -3 -10 -17 -10 -30 0 -13 -4 -27 -10 -30 -6
-3 -10 -17 -10 -31 0 -13 -4 -24 -10 -24 -5 0 -10 -13 -10 -30 0 -16 -4 -30
-10 -30 -5 0 -10 -11 -10 -24 0 -14 -4 -28 -10 -31 -5 -3 -10 -21 -10 -40 0
-19 -4 -37 -10 -40 -6 -3 -10 -17 -10 -31 0 -13 -4 -24 -9 -24 -5 0 -12 -32
-16 -70 -4 -39 -11 -73 -16 -76 -5 -3 -9 -21 -9 -40 0 -19 -4 -34 -10 -34 -5
0 -10 -20 -10 -44 0 -25 -5 -48 -10 -51 -6 -3 -10 -21 -10 -40 0 -19 -4 -37
-10 -40 -5 -3 -10 -28 -10 -55 0 -27 -4 -52 -10 -55 -5 -3 -10 -35 -10 -70 0
-35 -4 -67 -10 -70 -5 -3 -10 -33 -10 -65 0 -32 -4 -62 -10 -65 -6 -3 -10 -50
-10 -105 0 -55 -4 -102 -10 -105 -14 -8 -14 -702 0 -710 6 -3 10 -50 10 -105
0 -55 4 -102 10 -105 5 -3 10 -37 10 -75 0 -38 4 -72 10 -75 6 -3 10 -30 10
-60 0 -30 5 -57 10 -60 6 -3 10 -28 10 -55 0 -27 4 -52 10 -55 6 -3 10 -26 10
-50 0 -24 5 -47 10 -50 6 -3 10 -22 10 -41 0 -19 5 -34 10 -34 6 0 10 -15 10
-34 0 -19 4 -37 9 -40 5 -3 12 -37 16 -76 4 -38 11 -70 16 -70 5 0 9 -15 9
-34 0 -19 5 -38 10 -41 6 -3 10 -17 10 -30 0 -13 5 -27 10 -30 6 -3 10 -17 10
-30 0 -13 5 -27 10 -30 6 -3 10 -17 10 -31 0 -13 5 -24 10 -24 6 0 10 -11 10
-24 0 -14 4 -28 10 -31 6 -3 10 -17 10 -30 0 -13 4 -27 10 -30 5 -3 10 -14 10
-24 0 -10 7 -32 15 -47 8 -16 15 -37 15 -47 0 -9 4 -25 9 -35 40 -79 71 -147
71 -157 0 -7 14 -41 31 -76 18 -35 35 -73 39 -84 18 -46 145 -301 156 -312 6
-7 28 -46 48 -87 20 -42 41 -78 47 -81 5 -4 18 -26 29 -50 11 -24 24 -47 30
-50 6 -3 19 -25 30 -48 27 -55 41 -78 62 -98 10 -9 18 -23 18 -30 0 -8 9 -21
20 -29 11 -8 20 -21 20 -29 0 -7 8 -21 18 -30 19 -18 38 -46 51 -76 5 -12 16
-27 25 -34 9 -7 16 -19 16 -25 0 -7 14 -25 30 -41 17 -16 30 -34 30 -40 0 -6
13 -24 30 -40 16 -16 30 -34 30 -40 0 -6 11 -22 25 -35 14 -13 25 -29 25 -35
0 -6 18 -29 40 -50 22 -21 40 -44 40 -50 0 -6 20 -31 45 -55 25 -24 45 -48 45
-52 0 -4 27 -36 60 -70 33 -35 60 -66 60 -70 0 -4 38 -46 85 -93 47 -48 85
-91 85 -95 0 -12 327 -340 339 -340 6 0 50 -40 99 -90 50 -49 94 -90 99 -90 5
0 40 -31 78 -70 38 -38 74 -70 80 -70 6 0 31 -20 55 -45 24 -25 49 -45 55 -45
6 0 29 -18 50 -40 21 -22 44 -40 50 -40 6 0 26 -16 45 -35 19 -19 39 -35 45
-35 6 0 24 -14 40 -30 16 -17 32 -30 37 -30 4 0 22 -14 40 -30 17 -16 35 -30
40 -30 5 0 21 -11 36 -25 15 -14 31 -25 35 -25 5 0 21 -12 35 -28 15 -15 39
-33 55 -41 15 -8 27 -18 27 -23 0 -4 6 -8 13 -8 8 0 22 -9 32 -20 10 -11 23
-20 30 -20 6 0 22 -11 35 -25 13 -14 29 -25 35 -25 7 0 20 -9 30 -20 10 -11
23 -20 30 -20 7 0 20 -9 30 -20 10 -11 24 -20 30 -20 7 0 19 -7 26 -16 7 -9
22 -20 34 -25 30 -13 58 -32 76 -51 9 -10 24 -18 33 -18 9 0 16 -4 16 -10 0
-5 6 -10 13 -10 8 0 22 -9 32 -20 10 -11 23 -20 30 -20 7 0 20 -9 29 -19 10
-11 31 -23 46 -26 16 -3 34 -13 41 -21 6 -8 28 -22 48 -31 20 -9 45 -24 56
-33 11 -10 35 -23 53 -31 17 -8 32 -17 32 -21 0 -5 8 -8 18 -8 9 0 23 -9 30
-20 7 -11 17 -20 23 -20 16 0 97 -39 104 -49 3 -5 31 -22 63 -37 31 -16 59
-32 60 -36 2 -4 12 -8 23 -8 10 0 19 -4 19 -10 0 -5 9 -10 20 -10 11 0 20 -3
20 -8 0 -4 9 -12 20 -17 11 -6 111 -56 222 -113 112 -56 208 -102 214 -102 15
0 138 -63 142 -72 2 -5 11 -8 20 -8 10 0 28 -9 42 -20 14 -11 34 -20 45 -20
11 0 51 -16 89 -35 39 -19 78 -35 88 -35 10 0 18 -4 18 -10 0 -5 6 -10 13 -10
18 0 67 -24 67 -32 0 -5 9 -8 19 -8 10 0 45 -13 76 -30 31 -16 64 -30 72 -30
15 0 60 -18 126 -51 22 -10 45 -19 53 -19 7 0 29 -9 49 -20 20 -11 44 -20 55
-20 10 0 22 -4 25 -10 3 -5 17 -10 31 -10 13 0 24 -4 24 -10 0 -5 9 -10 20
-10 11 0 20 -4 20 -9 0 -5 22 -12 50 -16 27 -4 52 -11 56 -16 3 -5 14 -9 24
-9 11 0 35 -9 55 -20 20 -11 44 -20 55 -20 11 0 20 -4 20 -10 0 -5 11 -10 24
-10 14 0 28 -4 31 -10 3 -5 17 -10 30 -10 13 0 27 -4 30 -10 3 -5 17 -10 30
-10 13 0 27 -4 30 -10 3 -5 17 -10 31 -10 13 0 24 -4 24 -9 0 -5 22 -12 50
-16 27 -4 52 -11 56 -16 3 -5 16 -9 29 -9 13 0 27 -4 30 -10 3 -5 17 -10 30
-10 13 0 27 -4 30 -10 3 -5 17 -10 31 -10 13 0 24 -4 24 -10 0 -5 15 -10 34
-10 19 0 38 -5 41 -10 3 -6 17 -10 30 -10 13 0 27 -4 30 -10 3 -5 17 -10 30
-10 13 0 27 -5 30 -10 3 -6 19 -10 35 -10 16 0 31 -4 35 -10 3 -5 33 -12 66
-16 32 -4 62 -11 65 -15 3 -5 16 -9 30 -9 13 0 24 -4 24 -10 0 -5 15 -10 34
-10 19 0 38 -4 41 -10 3 -5 21 -10 40 -10 19 0 37 -4 40 -10 3 -5 17 -10 31
-10 13 0 24 -4 24 -10 0 -5 15 -10 34 -10 19 0 38 -4 41 -10 3 -5 21 -10 40
-10 19 0 37 -5 40 -10 3 -6 21 -10 39 -10 17 0 36 -4 42 -10 5 -5 42 -12 82
-16 40 -4 75 -11 78 -15 3 -5 18 -9 34 -9 16 0 32 -5 35 -10 3 -6 21 -10 40
-10 19 0 37 -4 40 -10 3 -5 26 -10 50 -10 24 0 47 -5 50 -10 3 -6 24 -10 45
-10 21 0 42 -5 45 -10 3 -5 21 -10 40 -10 19 0 37 -4 40 -10 3 -5 26 -10 50
-10 24 0 47 -4 50 -10 3 -5 28 -10 55 -10 27 0 52 -4 55 -10 3 -6 26 -10 51
-10 24 0 44 -4 44 -9 0 -5 45 -13 100 -16 55 -4 100 -11 100 -16 0 -5 24 -9
54 -9 30 0 58 -4 61 -10 3 -5 31 -10 61 -10 30 0 54 -4 54 -10 0 -5 24 -10 54
-10 30 0 58 -4 61 -10 3 -5 33 -10 65 -10 32 0 62 -5 65 -10 3 -6 35 -10 71
-10 36 0 64 -4 64 -10 0 -6 31 -10 74 -10 41 0 78 -4 81 -10 3 -5 37 -10 74
-10 37 0 71 -3 75 -7 7 -7 227 -27 441 -39 50 -3 94 -10 99 -15 6 -5 63 -9
127 -9 68 0 120 -4 124 -10 4 -6 65 -10 150 -10 85 0 146 -4 150 -10 4 -6 95
-10 241 -10 149 0 234 -4 234 -10 0 -7 180 -10 520 -10 340 0 520 3 520 10 0
6 81 10 224 10 139 0 227 4 231 10 4 6 65 10 150 10 85 0 146 4 150 10 4 6 57
10 125 10 68 0 121 4 125 10 3 6 50 10 105 10 54 0 101 4 104 9 3 5 78 12 166
16 88 4 163 11 166 16 3 5 36 9 74 9 38 0 72 5 75 10 3 6 40 10 81 10 43 0 74
4 74 10 0 6 28 10 64 10 36 0 68 5 71 10 3 6 33 10 65 10 32 0 62 5 65 10 3 6
31 10 61 10 30 0 54 5 54 10 0 6 24 10 54 10 30 0 58 5 61 10 3 6 28 10 55 10
27 0 51 4 54 9 3 4 51 12 106 15 55 4 100 12 100 17 0 5 24 9 54 9 30 0 58 5
61 10 3 6 24 10 45 10 21 0 42 5 45 10 3 6 26 10 50 10 24 0 47 5 50 10 3 6
26 10 51 10 24 0 44 5 44 10 0 6 15 10 34 10 19 0 38 5 41 10 3 6 26 10 50 10
24 0 47 5 50 10 3 5 22 10 41 10 19 0 34 5 34 10 0 6 20 10 44 10 25 0 47 4
50 9 3 5 35 12 71 16 36 3 67 11 70 16 4 5 21 9 40 9 19 0 37 5 40 10 3 6 21
10 40 10 19 0 37 5 40 10 3 6 19 10 35 10 16 0 32 5 35 10 3 6 21 10 40 10 19
0 37 5 40 10 3 6 17 10 30 10 13 0 27 5 30 10 3 6 22 10 41 10 19 0 34 5 34
10 0 6 11 10 24 10 14 0 27 4 30 9 3 4 33 11 65 15 33 4 63 11 66 16 4 6 19
10 35 10 16 0 32 5 35 10 3 6 17 10 30 10 13 0 27 5 30 10 3 6 21 10 40 10 19
0 37 5 40 10 3 6 17 10 31 10 13 0 24 5 24 10 0 6 11 10 24 10 14 0 28 4 31
10 3 6 17 10 30 10 13 0 27 5 30 10 3 6 17 10 30 10 13 0 26 4 29 9 3 4 28 11
56 15 27 4 50 11 50 16 0 6 11 10 24 10 14 0 28 5 31 10 3 6 17 10 30 10 13 0
27 5 30 10 3 5 17 10 30 10 13 0 27 4 30 10 3 6 17 10 31 10 13 0 24 5 24 10
0 6 14 10 30 10 17 0 30 5 30 10 0 6 11 10 24 10 14 0 28 5 31 10 3 6 14 10
24 10 10 0 32 7 47 15 16 8 39 15 52 15 12 0 22 5 22 10 0 6 14 10 30 10 17 0
30 3 30 8 0 8 49 32 67 32 7 0 28 9 48 20 20 11 41 20 48 20 18 0 67 24 67 33
0 4 8 7 19 7 10 0 32 7 47 15 16 8 37 15 46 15 10 0 33 9 53 20 20 11 42 20
50 20 14 0 53 18 65 30 11 11 51 30 63 30 8 0 48 17 89 39 42 21 92 41 111 45
20 4 37 10 39 14 4 9 128 72 142 72 15 0 543 264 565 283 9 7 60 35 113 61 53
26 102 54 108 62 7 8 17 14 22 14 18 0 83 34 99 52 9 10 24 18 33 18 9 0 16 5
16 10 0 6 6 10 14 10 7 0 19 7 26 15 7 9 32 25 55 35 23 10 47 26 54 34 7 8
25 18 41 21 16 3 34 13 41 21 6 8 28 22 48 31 20 9 43 25 52 35 9 10 22 18 29
18 7 0 20 8 29 18 18 19 46 38 76 51 12 5 27 16 34 25 7 9 19 16 26 16 6 0 20
9 30 20 10 11 23 20 30 20 7 0 20 9 30 20 10 11 24 20 30 20 7 0 19 7 26 16 7
9 22 20 34 25 43 20 69 38 90 63 12 14 29 26 36 26 8 0 21 9 29 20 8 11 21 20
28 20 8 0 23 11 34 25 11 14 25 25 31 25 7 0 26 14 44 30 18 17 36 30 41 30 4
0 21 14 37 30 16 17 34 30 40 30 6 0 26 16 45 35 19 19 39 35 45 35 6 0 29 18
50 40 21 22 44 40 50 40 6 0 31 20 55 45 24 25 49 45 55 45 6 0 37 27 70 60
33 33 64 60 70 60 5 0 47 38 91 85 45 47 87 85 93 85 13 0 451 439 451 452 0
5 34 42 75 83 41 40 75 78 75 84 0 5 27 37 60 69 33 33 60 64 60 69 0 5 16 24
35 43 19 19 35 39 35 45 0 6 18 29 40 50 22 21 40 44 40 50 0 6 11 22 25 35
14 13 25 29 25 35 0 6 14 24 30 40 17 16 30 33 30 39 0 5 12 22 26 37 26 27
44 55 63 94 5 12 16 27 25 34 9 7 16 19 16 25 0 6 9 18 20 26 11 8 20 21 20
30 0 9 9 22 20 30 11 8 20 21 20 30 0 8 9 21 19 27 11 7 22 25 26 42 3 16 13
35 21 42 8 7 24 32 34 55 11 24 24 46 30 49 6 3 19 25 30 49 10 23 26 48 34
55 8 7 18 26 21 42 4 16 11 29 16 29 5 0 9 9 9 19 0 11 4 21 8 23 6 2 105 197
155 308 7 14 14 27 17 30 12 12 30 51 30 64 0 8 14 40 30 71 17 31 30 66 30
76 0 10 5 19 10 19 6 0 10 9 10 20 0 11 4 20 9 20 5 0 12 21 16 46 3 25 15 62
26 80 10 19 19 43 19 54 0 10 5 22 10 25 6 3 10 17 10 31 0 13 5 24 10 24 6 0
10 14 10 30 0 17 5 30 10 30 6 0 10 11 10 24 0 14 5 28 10 31 6 3 10 21 10 40
0 19 5 37 10 40 6 3 10 17 10 30 0 13 4 26 9 30 5 3 13 34 16 70 4 36 11 68
16 71 5 3 9 20 9 39 0 19 5 37 10 40 6 3 10 22 10 41 0 19 5 34 10 34 6 0 10
20 10 44 0 25 5 48 10 51 6 3 10 31 10 61 0 30 5 54 10 54 6 0 10 24 10 54 0
30 5 58 10 61 6 3 10 33 10 65 0 32 5 62 10 65 6 3 10 46 10 95 0 49 5 92 10
95 6 4 10 153 10 415 0 262 -4 411 -10 415 -5 3 -10 46 -10 95 0 49 -4 92 -10
95 -5 3 -10 33 -10 65 0 32 -4 62 -10 65 -5 3 -10 31 -10 61 0 30 -4 54 -10
54 -5 0 -10 24 -10 54 0 30 -4 58 -10 61 -5 3 -10 26 -10 51 0 24 -4 44 -10
44 -5 0 -10 15 -10 34 0 19 -4 38 -10 41 -5 3 -10 21 -10 40 0 19 -4 36 -9 39
-5 3 -12 35 -16 71 -3 36 -11 67 -16 70 -5 4 -9 17 -9 30 0 13 -4 27 -10 30
-5 3 -10 21 -10 40 0 19 -4 37 -10 40 -5 3 -10 17 -10 31 0 13 -4 24 -10 24
-5 0 -10 14 -10 30 0 17 -4 30 -10 30 -5 0 -10 11 -10 24 0 14 -4 28 -10 31
-5 3 -10 15 -10 25 0 11 -8 34 -18 52 -11 18 -22 50 -26 70 -4 21 -20 63 -36
94 -17 31 -30 62 -30 70 0 7 -9 29 -20 49 -11 20 -20 44 -20 55 0 11 -4 20
-10 20 -5 0 -10 9 -10 20 0 11 -3 20 -8 20 -4 0 -13 15 -21 33 -19 47 -144
301 -151 307 -7 7 -41 70 -80 147 -17 34 -35 65 -40 68 -5 3 -17 23 -26 43
-10 20 -24 45 -32 55 -19 21 -40 56 -48 80 -3 9 -10 17 -15 17 -5 0 -9 8 -9
18 0 10 -9 24 -20 32 -11 8 -20 21 -20 30 0 8 -9 21 -20 28 -11 7 -20 18 -20
26 0 7 -9 21 -20 31 -11 10 -20 23 -20 30 0 6 -11 22 -25 35 -14 13 -25 29
-25 35 0 6 -13 24 -30 40 -16 16 -30 34 -30 40 0 7 -9 20 -20 30 -11 10 -20
23 -20 30 0 6 -16 26 -35 45 -19 19 -35 39 -35 45 0 6 -13 24 -30 40 -16 16
-30 34 -30 40 0 6 -20 31 -45 55 -25 24 -45 48 -45 52 0 4 -27 35 -60 69 -33
33 -60 65 -60 71 0 5 -38 47 -84 92 -45 45 -85 87 -87 94 -6 17 -359 372 -370
372 -5 0 -50 42 -101 93 -51 52 -98 96 -105 98 -6 2 -39 30 -72 62 -34 31 -64
57 -69 57 -4 0 -32 25 -62 55 -30 30 -59 55 -65 55 -6 0 -24 14 -40 30 -16 17
-34 30 -40 30 -6 0 -26 16 -45 35 -19 19 -39 35 -45 35 -6 0 -24 14 -40 30
-16 17 -34 30 -40 30 -6 0 -24 14 -40 30 -16 17 -34 30 -40 30 -6 0 -22 11
-35 25 -13 14 -28 25 -33 25 -5 0 -22 14 -37 30 -15 17 -34 30 -42 30 -7 0
-20 9 -28 20 -8 11 -19 20 -25 20 -7 0 -22 11 -35 25 -13 14 -29 25 -35 25 -7
0 -20 9 -30 20 -10 11 -23 20 -30 20 -7 0 -20 9 -30 20 -10 11 -23 20 -30 20
-7 0 -20 9 -30 20 -10 11 -24 20 -30 20 -7 0 -19 7 -26 16 -7 9 -22 20 -34 25
-30 13 -58 32 -76 52 -9 9 -24 17 -33 17 -9 0 -16 5 -16 10 0 6 -8 10 -18 10
-10 0 -24 9 -32 20 -8 11 -19 20 -26 20 -6 0 -19 9 -28 19 -10 11 -31 23 -46
26 -16 3 -34 13 -41 21 -7 8 -31 24 -54 34 -23 10 -48 26 -55 35 -7 8 -19 15
-26 15 -8 0 -14 5 -14 10 0 6 -9 10 -20 10 -11 0 -20 5 -20 10 0 6 -9 10 -20
10 -11 0 -20 4 -20 9 0 6 -29 24 -65 41 -35 17 -67 35 -70 39 -3 5 -49 31
-103 57 -53 27 -99 51 -102 55 -3 3 -16 10 -30 14 -14 4 -33 14 -42 22 -20 18
-368 193 -383 193 -14 0 -219 103 -223 112 -2 5 -13 8 -25 8 -12 0 -53 16 -91
35 -39 19 -75 35 -82 35 -15 0 -98 42 -102 53 -2 4 -12 7 -21 7 -10 0 -40 11
-67 25 -27 14 -57 25 -66 25 -10 0 -33 9 -53 20 -20 11 -44 20 -55 20 -11 0
-20 5 -20 10 0 6 -9 10 -20 10 -11 0 -20 5 -20 10 0 6 -9 10 -20 10 -11 0 -35
9 -55 20 -20 11 -44 20 -55 20 -10 0 -22 5 -25 10 -3 6 -14 10 -24 10 -10 0
-32 7 -47 15 -16 8 -37 15 -46 15 -9 0 -20 5 -23 10 -3 6 -17 10 -30 10 -13 0
-27 5 -30 10 -3 6 -15 10 -25 10 -11 0 -35 9 -55 20 -20 11 -44 20 -55 20 -11
0 -20 5 -20 10 0 6 -11 10 -24 10 -14 0 -28 5 -31 10 -3 6 -17 10 -30 10 -13
0 -27 5 -30 10 -3 6 -17 10 -30 10 -13 0 -27 5 -30 10 -3 6 -17 10 -31 10 -13
0 -24 4 -24 9 0 5 -22 12 -50 16 -27 4 -52 11 -56 16 -3 5 -16 9 -29 9 -13 0
-27 5 -30 10 -3 6 -17 10 -30 10 -13 0 -27 5 -30 10 -3 6 -22 10 -41 10 -19 0
-34 5 -34 10 0 6 -11 10 -24 10 -14 0 -28 5 -31 10 -3 6 -17 10 -30 10 -13 0
-27 5 -30 10 -3 6 -22 10 -41 10 -19 0 -34 5 -34 10 0 6 -11 10 -24 10 -14 0
-27 4 -31 10 -3 5 -33 12 -66 16 -32 4 -62 11 -65 15 -3 5 -21 9 -40 9 -19 0
-34 5 -34 10 0 6 -11 10 -24 10 -14 0 -28 5 -31 10 -3 6 -21 10 -40 10 -19 0
-37 5 -40 10 -3 6 -22 10 -41 10 -19 0 -34 5 -34 10 0 6 -15 10 -34 10 -19 0
-38 5 -41 10 -3 6 -21 10 -40 10 -19 0 -37 5 -40 10 -3 6 -21 10 -40 10 -19 0
-36 4 -40 9 -3 5 -34 13 -70 16 -36 4 -68 11 -71 16 -3 5 -21 9 -40 9 -19 0
-34 5 -34 10 0 6 -20 10 -44 10 -25 0 -48 5 -51 10 -3 6 -21 10 -40 10 -19 0
-37 5 -40 10 -3 6 -26 10 -51 10 -24 0 -44 5 -44 10 0 6 -20 10 -44 10 -25 0
-48 5 -51 10 -3 6 -26 10 -51 10 -24 0 -44 5 -44 10 0 6 -20 10 -44 10 -25 0
-47 4 -50 9 -4 5 -49 12 -101 16 -52 4 -98 11 -101 16 -3 5 -30 9 -60 9 -30 0
-54 5 -54 10 0 6 -20 10 -44 10 -25 0 -48 5 -51 10 -3 6 -33 10 -65 10 -32 0
-62 5 -65 10 -3 6 -30 10 -60 10 -30 0 -57 5 -60 10 -3 6 -33 10 -65 10 -32 0
-62 5 -65 10 -3 6 -35 10 -71 10 -36 0 -64 4 -64 10 0 6 -31 10 -74 10 -41 0
-78 5 -81 10 -3 6 -37 10 -75 10 -38 0 -71 4 -74 9 -3 5 -83 12 -176 16 -94 4
-173 11 -176 16 -3 5 -50 9 -104 9 -55 0 -102 4 -105 10 -4 6 -57 10 -125 10
-68 0 -121 4 -125 10 -4 6 -65 10 -150 10 -85 0 -146 4 -150 10 -4 6 -103 10
-265 10 -162 0 -261 4 -265 10 -4 6 -153 10 -415 10 -262 0 -411 -4 -415 -10
-4 -6 -100 -10 -255 -10 -155 0 -251 -4 -255 -10 -4 -6 -68 -10 -160 -10 -92
0 -156 -4 -160 -10 -4 -6 -57 -10 -125 -10 -68 0 -121 -4 -125 -10 -3 -6 -52
-10 -110 -10 -58 0 -107 4 -110 10 -3 6 -35 10 -71 10 -36 0 -64 4 -64 10 0 6
-24 10 -54 10 -30 0 -58 5 -61 10 -3 6 -31 10 -61 10 -30 0 -54 5 -54 10 0 6
-24 10 -54 10 -30 0 -58 5 -61 10 -3 6 -33 10 -65 10 -32 0 -62 5 -65 10 -3 6
-30 10 -60 10 -30 0 -56 4 -59 9 -3 5 -53 12 -111 16 -58 4 -105 11 -105 16 0
5 -29 9 -64 9 -36 0 -68 5 -71 10 -3 6 -28 10 -55 10 -27 0 -52 5 -55 10 -3 6
-30 10 -60 10 -30 0 -57 5 -60 10 -3 6 -28 10 -55 10 -27 0 -52 5 -55 10 -3 6
-35 10 -71 10 -36 0 -64 4 -64 10 0 6 -24 10 -54 10 -30 0 -58 5 -61 10 -3 6
-31 10 -61 10 -30 0 -54 4 -54 9 0 5 -52 12 -115 16 -63 4 -118 11 -121 16 -3
5 -29 9 -59 9 -30 0 -57 5 -60 10 -3 6 -28 10 -55 10 -27 0 -52 5 -55 10 -3 6
-31 10 -61 10 -30 0 -54 5 -54 10 0 6 -24 10 -54 10 -30 0 -58 5 -61 10 -3 6
-35 10 -71 10 -36 0 -64 4 -64 10 0 6 -24 10 -54 10 -30 0 -58 5 -61 10 -3 6
-28 10 -55 10 -27 0 -51 4 -54 9 -3 5 -58 12 -121 16 -63 4 -118 11 -121 16
-3 5 -30 9 -60 9 -30 0 -54 5 -54 10 0 6 -24 10 -54 10 -30 0 -58 5 -61 10 -3
6 -31 10 -61 10 -30 0 -54 5 -54 10 0 6 -28 10 -65 10 -37 0 -65 4 -65 10 0
13 -119 11 -147 -4z m151 -245 c3 -5 53 -12 111 -16 58 -4 108 -11 111 -16 3
-5 27 -9 54 -9 27 0 52 -4 55 -10 3 -5 35 -10 71 -10 36 0 64 -4 64 -10 0 -5
24 -10 54 -10 30 0 58 -4 61 -10 3 -5 28 -10 55 -10 27 0 52 -4 55 -10 3 -5
31 -10 61 -10 30 0 54 -4 54 -10 0 -6 28 -10 64 -10 36 0 68 -4 71 -10 3 -5
31 -10 61 -10 30 0 54 -4 54 -9 0 -5 47 -12 105 -16 58 -4 108 -11 111 -16 3
-5 34 -9 69 -9 35 0 67 -4 70 -10 3 -5 28 -10 55 -10 27 0 52 -4 55 -10 3 -5
31 -10 61 -10 30 0 54 -4 54 -10 0 -5 24 -10 54 -10 30 0 58 -4 61 -10 3 -5
33 -10 65 -10 32 0 62 -4 65 -10 3 -5 30 -10 60 -10 30 0 57 -4 60 -10 3 -5
28 -10 55 -10 27 0 51 -4 54 -9 3 -5 58 -12 121 -16 63 -4 118 -11 121 -16 3
-5 27 -9 54 -9 27 0 52 -4 55 -10 3 -5 30 -10 60 -10 30 0 57 -4 60 -10 3 -5
28 -10 55 -10 27 0 52 -4 55 -10 3 -5 35 -10 70 -10 35 0 67 -4 70 -10 3 -5
28 -10 55 -10 27 0 52 -4 55 -10 3 -5 31 -10 61 -10 30 0 54 -4 54 -10 0 -5
24 -10 54 -10 30 0 58 -4 61 -10 3 -5 33 -10 65 -10 32 0 61 -4 64 -9 3 -5 53
-12 111 -16 58 -4 108 -11 111 -16 3 -5 29 -9 59 -9 30 0 57 -4 60 -10 3 -5
33 -10 65 -10 32 0 62 -4 65 -10 3 -5 31 -10 61 -10 30 0 54 -4 54 -10 0 -5
22 -10 48 -10 60 0 95 -17 147 -69 21 -23 43 -41 48 -41 5 0 40 -30 79 -67 38
-38 72 -67 77 -66 4 1 25 -16 46 -38 22 -21 43 -39 47 -39 4 0 33 -25 65 -55
32 -30 62 -55 66 -55 4 0 35 -27 67 -60 32 -33 62 -60 67 -60 4 0 31 -23 59
-51 28 -28 62 -56 75 -62 12 -7 24 -18 27 -24 3 -10 -19 -13 -87 -13 -50 0
-91 -4 -91 -8 0 -5 11 -19 25 -32 14 -13 25 -29 25 -36 0 -6 13 -22 30 -35 16
-13 30 -30 30 -37 0 -8 14 -27 30 -42 17 -15 30 -32 30 -37 0 -5 16 -26 35
-46 19 -20 35 -41 35 -45 0 -5 14 -21 30 -37 17 -16 30 -34 30 -40 0 -6 14
-24 30 -40 17 -16 30 -34 30 -40 0 -6 11 -22 25 -35 14 -13 25 -29 25 -35 0
-6 14 -24 30 -40 17 -16 30 -34 30 -40 0 -6 14 -24 30 -40 17 -16 30 -34 30
-40 0 -6 16 -26 35 -45 19 -19 35 -39 35 -45 0 -6 14 -24 30 -40 17 -16 30
-33 30 -37 0 -5 11 -21 25 -36 14 -15 25 -31 25 -35 0 -5 14 -22 30 -37 17
-15 30 -32 30 -38 0 -5 14 -23 30 -40 17 -18 30 -35 30 -40 0 -4 16 -23 35
-42 19 -19 35 -39 35 -45 0 -6 14 -24 30 -40 17 -16 30 -34 30 -40 0 -6 14
-24 30 -40 17 -16 30 -34 30 -40 0 -6 11 -22 25 -35 14 -13 25 -29 25 -35 0
-6 14 -24 30 -40 17 -16 30 -34 30 -40 0 -6 14 -24 30 -40 17 -16 30 -34 30
-40 0 -6 16 -26 35 -45 19 -19 35 -38 35 -43 0 -5 14 -22 30 -37 17 -15 30
-33 30 -40 0 -7 14 -25 30 -40 17 -15 30 -32 30 -37 0 -5 11 -20 25 -33 14
-13 25 -29 25 -35 0 -6 14 -24 30 -40 17 -16 30 -34 30 -40 0 -6 18 -29 40
-50 22 -21 40 -44 40 -50 0 -6 11 -22 25 -35 14 -13 25 -29 25 -35 0 -6 14
-24 30 -40 17 -16 30 -34 30 -40 0 -6 14 -24 30 -40 17 -16 30 -34 30 -40 0
-6 11 -22 25 -35 14 -13 25 -29 25 -36 0 -6 13 -22 30 -35 16 -13 30 -30 30
-37 0 -7 16 -28 35 -48 19 -19 35 -38 35 -43 0 -4 14 -22 30 -39 17 -18 30
-37 30 -43 0 -7 9 -20 20 -29 12 -10 17 -20 13 -23 -4 -3 -68 -8 -140 -12 -73
-4 -133 -11 -133 -16 0 -5 -15 -9 -34 -9 -19 0 -38 -4 -41 -10 -3 -5 -35 -10
-70 -10 -35 0 -67 5 -70 10 -3 6 -28 10 -55 10 -27 0 -51 4 -54 9 -3 4 -52 12
-108 16 -57 4 -108 11 -113 15 -6 5 -31 10 -55 12 -43 3 -45 5 -56 43 -13 51
-46 125 -56 125 -5 0 -8 8 -8 18 0 10 -9 24 -20 32 -11 8 -20 21 -20 30 0 8
-9 21 -20 28 -11 7 -20 18 -20 24 0 14 -100 118 -113 118 -5 0 -22 14 -37 30
-15 17 -35 30 -44 30 -9 0 -16 4 -16 9 0 5 -8 11 -17 15 -10 3 -40 19 -68 35
-27 16 -58 30 -67 30 -10 1 -33 10 -53 21 -20 11 -44 20 -55 20 -11 0 -20 5
-20 10 0 6 -13 10 -30 10 -16 0 -30 5 -30 10 0 6 -11 10 -24 10 -14 0 -27 4
-31 10 -3 5 -32 12 -65 16 -33 4 -60 11 -60 15 0 5 -15 9 -34 9 -19 0 -38 5
-41 10 -3 6 -26 10 -50 10 -24 0 -47 5 -50 10 -3 6 -26 10 -51 10 -24 0 -44 5
-44 10 0 6 -20 10 -44 10 -25 0 -48 5 -51 10 -3 6 -26 10 -51 10 -24 0 -44 5
-44 10 0 6 -24 10 -54 10 -30 0 -58 5 -61 10 -3 6 -28 10 -55 10 -27 0 -51 4
-54 9 -3 4 -47 11 -98 15 -51 4 -97 11 -103 17 -5 5 -33 9 -61 9 -29 0 -56 5
-59 10 -3 6 -26 10 -51 10 -24 0 -44 5 -44 10 0 6 -24 10 -54 10 -30 0 -58 5
-61 10 -3 6 -22 10 -41 10 -19 0 -34 5 -34 10 0 6 -20 10 -44 10 -25 0 -48 5
-51 10 -3 6 -22 10 -41 10 -22 0 -34 5 -34 14 0 7 -7 20 -16 27 -9 7 -20 22
-25 34 -19 39 -37 67 -63 94 -14 15 -26 32 -26 37 0 6 -9 19 -20 29 -11 10
-20 24 -20 30 0 7 -7 19 -16 26 -9 7 -20 22 -25 34 -20 43 -38 69 -63 90 -14
12 -26 29 -26 36 0 8 -9 21 -20 29 -11 8 -20 22 -20 31 0 9 -7 19 -15 23 -8 3
-20 16 -26 28 -18 42 -36 69 -63 97 -14 15 -26 32 -26 37 0 6 -9 19 -20 29
-11 10 -20 24 -20 30 0 7 -7 19 -16 26 -9 7 -20 22 -25 34 -19 39 -37 67 -63
94 -14 15 -26 32 -26 37 0 6 -9 19 -20 29 -11 10 -20 23 -20 29 0 7 -9 18 -20
26 -11 8 -20 20 -20 28 0 7 -4 18 -10 25 -45 55 -60 76 -60 83 0 4 -17 25 -37
46 -25 26 -46 38 -64 38 -15 0 -30 4 -33 9 -3 4 -42 12 -86 15 -44 4 -82 12
-85 17 -4 5 -24 9 -45 9 -21 0 -42 5 -45 10 -3 6 -21 10 -40 10 -19 0 -37 5
-40 10 -3 6 -26 10 -51 10 -24 0 -44 5 -44 10 0 6 -20 10 -44 10 -25 0 -48 -4
-51 -10 -3 -5 -26 -10 -51 -10 -24 0 -44 -4 -44 -10 0 -5 -24 -10 -54 -10 -30
0 -58 5 -61 10 -3 6 -17 10 -31 10 -13 0 -24 5 -24 10 0 6 -9 10 -20 10 -11 0
-35 9 -55 20 -20 11 -42 20 -49 20 -8 0 -27 7 -42 15 -16 8 -38 15 -49 15 -11
0 -31 9 -45 20 -14 11 -35 20 -47 20 -12 0 -25 5 -28 10 -3 6 -15 10 -25 10
-11 0 -35 9 -55 20 -20 11 -44 20 -55 20 -11 0 -20 5 -20 10 0 6 -7 10 -15 10
-17 0 -115 94 -115 111 0 5 -29 39 -65 74 -36 35 -65 67 -65 72 0 5 -31 42
-70 82 -38 39 -70 75 -70 79 0 4 -29 37 -65 74 -36 36 -65 70 -65 75 0 5 -29
38 -65 73 -36 35 -65 69 -65 75 0 6 -29 40 -65 75 -36 35 -65 69 -65 75 0 6
-31 42 -70 80 -38 38 -70 74 -70 80 0 6 -29 40 -65 75 -36 35 -65 69 -65 75 0
6 -29 40 -65 75 -36 35 -65 70 -65 76 0 6 -14 22 -30 36 -30 25 -30 25 -10 43
11 10 20 23 20 30 0 12 20 35 31 35 4 0 10 -4 13 -9z m5856 -849 c0 -5 150
-12 333 -16 182 -4 336 -11 341 -17 6 -5 63 -9 128 -9 72 0 118 -4 118 -10 0
-6 40 -10 99 -10 56 0 103 -4 106 -10 3 -5 44 -10 91 -10 49 0 84 -4 84 -10 0
-6 35 -10 85 -10 50 0 85 -4 85 -10 0 -6 32 -10 75 -10 43 0 75 -4 75 -10 0
-6 28 -10 64 -10 36 0 68 -4 71 -10 3 -5 33 -10 65 -10 32 0 61 -4 64 -9 3 -4
56 -11 118 -15 62 -4 117 -11 123 -17 5 -5 33 -9 62 -9 29 0 53 -4 53 -10 0
-5 24 -10 54 -10 30 0 58 -4 61 -10 3 -5 31 -10 61 -10 30 0 54 -4 54 -10 0
-5 20 -10 44 -10 25 0 48 -4 51 -10 3 -5 26 -10 51 -10 24 0 44 -4 44 -10 0
-5 20 -10 44 -10 25 0 48 -4 51 -10 3 -5 26 -10 50 -10 24 0 46 -4 49 -9 3 -5
39 -12 81 -16 41 -4 77 -11 81 -16 3 -5 23 -9 44 -9 21 0 42 -4 45 -10 3 -5
21 -10 40 -10 19 0 37 -4 40 -10 3 -5 21 -10 40 -10 19 0 37 -4 40 -10 3 -5
22 -10 41 -10 19 0 34 -4 34 -10 0 -5 15 -10 34 -10 19 0 38 -4 41 -10 3 -5
21 -10 40 -10 19 0 37 -4 40 -10 3 -5 22 -10 41 -10 19 0 34 -4 34 -10 0 -5
15 -10 34 -10 19 0 37 -4 40 -9 3 -4 33 -11 65 -15 33 -4 63 -11 66 -16 4 -6
19 -10 35 -10 16 0 32 -4 35 -10 3 -5 21 -10 40 -10 19 0 37 -4 40 -10 3 -5
17 -10 30 -10 13 0 27 -4 30 -10 3 -5 17 -10 31 -10 13 0 24 -4 24 -10 0 -5
15 -10 34 -10 19 0 38 -4 41 -10 3 -5 17 -10 30 -10 13 0 27 -4 30 -10 3 -5
17 -10 30 -10 13 0 26 -4 29 -9 3 -5 26 -12 51 -15 24 -4 47 -11 50 -17 4 -5
21 -9 40 -9 19 0 37 -4 40 -10 3 -5 17 -10 30 -10 13 0 27 -4 30 -10 3 -5 17
-10 31 -10 13 0 24 -4 24 -10 0 -5 11 -10 24 -10 14 0 28 -4 31 -10 3 -5 17
-10 30 -10 13 0 27 -4 30 -10 3 -5 15 -10 25 -10 11 0 35 -9 55 -20 19 -11 53
-23 75 -26 22 -4 43 -11 46 -15 3 -5 14 -9 24 -9 11 0 35 -9 55 -20 20 -11 44
-20 55 -20 10 0 22 -4 25 -10 3 -5 17 -10 31 -10 13 0 24 -3 24 -7 0 -9 49
-33 67 -33 7 0 28 -9 48 -20 20 -11 43 -20 53 -20 9 0 30 -7 46 -15 15 -8 37
-15 47 -15 11 0 19 -3 19 -7 0 -9 48 -33 66 -33 7 0 38 -13 69 -30 31 -16 63
-30 71 -30 14 0 82 -35 98 -51 6 -5 19 -9 30 -9 12 0 61 -20 111 -45 49 -25
97 -45 107 -45 10 0 18 -4 18 -10 0 -5 9 -10 20 -10 11 0 20 -4 20 -10 0 -5 9
-10 20 -10 11 0 20 -3 20 -8 0 -4 15 -13 33 -21 69 -29 222 -106 225 -113 2
-4 12 -8 23 -8 10 0 19 -4 19 -10 0 -5 9 -10 20 -10 11 0 20 -3 20 -8 0 -4 15
-13 33 -21 83 -35 103 -45 122 -61 11 -10 35 -23 53 -31 17 -8 32 -17 32 -21
0 -5 9 -8 20 -8 11 0 20 -4 20 -10 0 -5 8 -10 18 -10 10 0 24 -9 32 -20 8 -11
18 -20 23 -20 14 0 96 -40 102 -50 3 -5 35 -23 70 -40 35 -17 67 -35 70 -40 3
-5 23 -17 43 -27 33 -15 98 -58 112 -73 3 -4 21 -14 41 -23 20 -9 42 -23 49
-32 7 -8 17 -15 23 -15 6 0 19 -7 29 -17 19 -17 49 -36 83 -52 12 -5 27 -16
34 -25 7 -9 19 -16 26 -16 6 0 20 -9 30 -20 10 -11 23 -20 29 -20 7 0 18 -9
26 -20 8 -11 21 -20 29 -20 7 0 21 -8 30 -17 18 -20 45 -38 76 -52 11 -5 31
-21 44 -35 14 -14 30 -26 36 -26 6 0 24 -13 40 -30 16 -16 34 -30 40 -30 6 0
22 -11 35 -25 13 -14 29 -25 35 -25 6 0 24 -13 40 -30 16 -16 34 -30 40 -30 6
0 29 -18 50 -40 21 -22 44 -40 50 -40 6 0 26 -16 45 -35 19 -19 38 -35 43 -35
5 0 17 -8 26 -18 9 -9 47 -44 86 -77 38 -33 82 -72 96 -87 15 -16 31 -28 36
-28 4 0 55 -47 113 -105 58 -58 109 -105 115 -105 13 0 225 -212 225 -225 0
-6 47 -57 105 -115 58 -58 105 -109 105 -115 0 -6 25 -35 55 -64 30 -30 55
-58 55 -63 0 -5 23 -31 50 -58 28 -27 50 -55 50 -62 0 -7 14 -24 30 -37 17
-13 30 -29 30 -35 0 -7 11 -23 25 -36 14 -13 25 -29 25 -35 0 -6 14 -24 30
-40 17 -16 30 -33 30 -39 0 -5 12 -22 26 -37 26 -27 44 -55 63 -94 5 -12 16
-27 25 -34 9 -7 16 -19 16 -26 0 -6 9 -20 20 -30 11 -10 20 -24 20 -30 0 -7 7
-19 16 -26 9 -7 20 -22 25 -34 14 -31 52 -92 72 -115 9 -11 17 -27 17 -35 0
-8 5 -15 10 -15 6 0 10 -6 10 -14 0 -7 7 -19 15 -26 8 -7 29 -42 46 -79 55
-119 74 -156 82 -159 4 -2 7 -12 7 -22 0 -10 4 -20 8 -22 4 -1 29 -48 56 -103
26 -55 52 -108 57 -117 5 -10 9 -25 9 -33 0 -14 18 -53 30 -65 12 -12 30 -51
30 -65 0 -8 9 -30 20 -50 11 -20 20 -44 20 -55 0 -10 5 -22 10 -25 6 -3 10
-17 10 -30 0 -13 4 -26 9 -30 6 -3 13 -26 17 -50 3 -25 10 -48 15 -51 5 -3 9
-16 9 -29 0 -13 5 -27 10 -30 6 -3 10 -17 10 -30 0 -13 5 -27 10 -30 6 -3 10
-22 10 -41 0 -19 5 -34 10 -34 6 0 10 -11 10 -24 0 -14 5 -28 10 -31 6 -3 10
-21 10 -40 0 -19 5 -37 10 -40 6 -3 10 -22 10 -41 0 -19 5 -34 10 -34 6 0 10
-20 10 -44 0 -25 4 -47 9 -50 5 -3 12 -44 16 -91 4 -47 11 -87 16 -91 5 -3 9
-34 9 -70 0 -36 4 -64 10 -64 6 0 10 -35 10 -84 0 -47 5 -88 10 -91 6 -4 10
-67 10 -156 0 -100 4 -156 12 -169 10 -15 10 -22 0 -32 -6 -6 -12 -31 -12 -55
0 -24 6 -52 12 -63 10 -15 10 -22 0 -32 -8 -8 -12 -57 -12 -164 0 -91 -4 -155
-10 -159 -5 -3 -10 -44 -10 -91 0 -49 -4 -84 -10 -84 -6 0 -10 -28 -10 -64 0
-36 -4 -67 -9 -70 -7 -4 -22 -102 -26 -163 0 -6 -4 -15 -8 -19 -4 -4 -7 -27
-7 -51 0 -24 -4 -43 -10 -43 -5 0 -10 -15 -10 -34 0 -19 -4 -38 -10 -41 -5 -3
-10 -21 -10 -40 0 -19 -4 -37 -10 -40 -5 -3 -10 -22 -10 -41 0 -19 -4 -34 -10
-34 -5 0 -10 -11 -10 -24 0 -14 -4 -28 -10 -31 -5 -3 -10 -17 -10 -30 0 -13
-4 -27 -10 -30 -5 -3 -10 -17 -10 -30 0 -13 -4 -26 -9 -29 -5 -3 -12 -26 -15
-51 -4 -24 -11 -47 -17 -50 -5 -4 -9 -17 -9 -30 0 -13 -4 -27 -10 -30 -5 -3
-10 -15 -10 -25 0 -11 -9 -35 -20 -55 -11 -20 -20 -41 -20 -48 0 -18 -24 -67
-32 -67 -5 0 -8 -9 -8 -19 0 -11 -9 -36 -19 -58 -45 -89 -71 -148 -71 -158 0
-17 -24 -65 -32 -65 -5 0 -8 -9 -8 -20 0 -11 -4 -20 -10 -20 -5 0 -10 -9 -10
-19 0 -10 -6 -21 -14 -24 -8 -3 -22 -23 -32 -44 -54 -120 -76 -163 -84 -168
-6 -4 -19 -25 -30 -49 -10 -23 -26 -49 -35 -56 -8 -7 -15 -19 -15 -26 0 -8 -4
-14 -10 -14 -5 0 -10 -6 -10 -14 0 -7 -7 -19 -15 -26 -8 -7 -15 -20 -15 -29 0
-9 -9 -23 -20 -31 -11 -8 -20 -19 -20 -26 0 -6 -9 -19 -20 -29 -11 -10 -20
-24 -20 -30 0 -7 -7 -19 -16 -26 -9 -7 -20 -22 -25 -34 -19 -39 -37 -67 -63
-94 -14 -15 -26 -32 -26 -37 0 -6 -9 -19 -20 -29 -11 -10 -20 -23 -20 -30 0
-6 -13 -24 -30 -40 -16 -16 -30 -34 -30 -40 0 -6 -16 -26 -35 -45 -19 -19 -35
-38 -35 -43 0 -5 -18 -26 -40 -47 -22 -21 -40 -43 -40 -48 0 -6 -25 -35 -55
-65 -30 -30 -55 -58 -55 -63 0 -5 -38 -47 -85 -94 -47 -47 -85 -89 -85 -95 0
-13 -312 -325 -325 -325 -5 0 -53 -43 -105 -95 -52 -52 -98 -95 -103 -95 -5 0
-25 -17 -45 -37 -20 -21 -60 -56 -87 -78 -28 -22 -62 -52 -77 -67 -14 -16 -30
-28 -35 -28 -5 0 -24 -16 -43 -35 -19 -19 -39 -35 -45 -35 -6 0 -29 -18 -50
-40 -21 -22 -44 -40 -50 -40 -6 0 -24 -14 -40 -30 -16 -16 -34 -30 -40 -30 -6
0 -22 -11 -35 -25 -13 -14 -29 -25 -35 -25 -6 0 -24 -13 -40 -30 -16 -16 -34
-30 -41 -30 -6 0 -18 -7 -25 -16 -7 -9 -22 -20 -34 -25 -33 -15 -58 -32 -86
-61 -15 -16 -33 -28 -41 -28 -7 0 -20 -9 -28 -20 -8 -11 -19 -20 -26 -20 -6 0
-19 -9 -29 -20 -10 -11 -23 -20 -28 -20 -6 0 -19 -7 -29 -17 -20 -18 -44 -32
-104 -62 -22 -11 -47 -27 -54 -36 -7 -8 -18 -15 -24 -15 -6 0 -18 -9 -26 -20
-8 -11 -21 -20 -29 -20 -8 0 -28 -10 -45 -23 -17 -13 -48 -31 -68 -40 -20 -10
-40 -22 -43 -27 -3 -6 -26 -19 -50 -30 -24 -11 -46 -24 -50 -30 -3 -5 -35 -24
-71 -42 -102 -51 -104 -52 -104 -60 0 -5 -9 -8 -20 -8 -11 0 -20 -4 -20 -8 0
-5 -16 -15 -35 -22 -20 -8 -41 -20 -47 -27 -10 -12 -83 -49 -165 -84 -18 -8
-33 -17 -33 -21 0 -5 -9 -8 -19 -8 -11 0 -21 -4 -23 -8 -4 -10 -270 -142 -286
-142 -7 0 -12 -4 -12 -10 0 -5 -9 -10 -20 -10 -11 0 -20 -4 -20 -10 0 -5 -9
-10 -19 -10 -11 0 -21 -3 -23 -7 -4 -11 -87 -53 -102 -53 -7 0 -43 -16 -82
-35 -38 -19 -74 -35 -80 -35 -7 0 -38 -14 -69 -30 -31 -16 -63 -30 -70 -30 -7
0 -39 -13 -70 -30 -31 -16 -66 -30 -76 -30 -10 0 -19 -4 -19 -10 0 -5 -9 -10
-20 -10 -11 0 -20 -4 -20 -10 0 -5 -10 -10 -22 -10 -13 0 -36 -7 -52 -15 -15
-8 -34 -15 -42 -15 -7 0 -29 -9 -49 -20 -20 -11 -44 -20 -55 -20 -11 0 -20 -4
-20 -10 0 -5 -9 -10 -20 -10 -11 0 -35 -9 -55 -20 -20 -11 -44 -20 -55 -20
-10 0 -22 -4 -25 -10 -3 -6 -17 -10 -30 -10 -13 0 -27 -4 -30 -10 -3 -5 -14
-10 -23 -10 -9 0 -30 -7 -46 -15 -15 -8 -37 -15 -47 -15 -10 0 -21 -4 -24 -10
-3 -5 -17 -10 -30 -10 -13 0 -27 -5 -30 -10 -3 -6 -17 -10 -30 -10 -13 0 -27
-4 -30 -10 -3 -5 -17 -10 -31 -10 -13 0 -24 -4 -24 -10 0 -5 -11 -10 -24 -10
-14 0 -28 -4 -31 -10 -3 -5 -17 -10 -30 -10 -13 0 -27 -4 -30 -10 -3 -5 -17
-10 -30 -10 -13 0 -26 -4 -29 -9 -4 -5 -29 -12 -56 -16 -28 -4 -50 -11 -50
-16 0 -5 -15 -9 -34 -9 -19 0 -38 -4 -41 -10 -3 -5 -17 -10 -30 -10 -13 0 -27
-4 -30 -10 -3 -5 -17 -10 -31 -10 -13 0 -24 -4 -24 -10 0 -5 -11 -10 -24 -10
-14 0 -28 -4 -31 -10 -3 -5 -21 -10 -40 -10 -19 0 -37 -4 -40 -10 -3 -5 -21
-10 -40 -10 -19 0 -37 -5 -40 -10 -3 -6 -17 -10 -31 -10 -13 0 -24 -4 -24 -10
0 -5 -15 -10 -34 -10 -19 0 -37 -4 -40 -9 -3 -4 -33 -11 -66 -15 -33 -4 -60
-11 -60 -16 0 -6 -15 -10 -34 -10 -19 0 -38 -4 -41 -10 -3 -5 -21 -10 -40 -10
-19 0 -37 -4 -40 -10 -3 -5 -22 -10 -41 -10 -19 0 -34 -4 -34 -10 0 -5 -15
-10 -34 -10 -19 0 -38 -5 -41 -10 -3 -6 -21 -10 -40 -10 -19 0 -37 -4 -40 -10
-3 -5 -26 -10 -51 -10 -24 0 -44 -4 -44 -10 0 -5 -15 -10 -34 -10 -19 0 -37
-4 -40 -9 -3 -5 -44 -12 -91 -16 -47 -4 -87 -11 -91 -16 -3 -5 -20 -9 -39 -9
-19 0 -37 -4 -40 -10 -3 -6 -26 -10 -51 -10 -24 0 -44 -4 -44 -10 0 -5 -20
-10 -44 -10 -25 0 -48 -5 -51 -10 -3 -6 -31 -10 -61 -10 -30 0 -54 -4 -54 -10
0 -5 -20 -10 -44 -10 -25 0 -48 -4 -51 -10 -3 -5 -31 -10 -61 -10 -30 0 -54
-4 -54 -10 0 -5 -24 -10 -53 -10 -29 0 -57 -4 -63 -9 -5 -6 -60 -13 -122 -17
-62 -4 -115 -11 -118 -15 -3 -5 -32 -9 -64 -9 -32 0 -62 -4 -65 -10 -3 -5 -35
-10 -71 -10 -36 0 -64 -4 -64 -10 0 -6 -32 -10 -75 -10 -43 0 -75 -4 -75 -10
0 -6 -35 -10 -84 -10 -47 0 -88 -4 -91 -10 -3 -5 -42 -10 -85 -10 -43 0 -82
-4 -85 -10 -3 -6 -50 -10 -105 -10 -55 0 -102 -4 -105 -10 -3 -6 -53 -10 -114
-10 -59 0 -111 -4 -117 -9 -5 -6 -152 -13 -327 -17 -175 -4 -320 -11 -323 -16
-7 -11 -1281 -11 -1288 1 -3 4 -151 11 -328 15 -183 4 -324 11 -326 17 -2 5
-53 9 -112 9 -62 0 -111 4 -115 10 -3 6 -50 10 -105 10 -55 0 -102 4 -105 10
-3 6 -42 10 -85 10 -43 0 -82 5 -85 10 -3 6 -44 10 -91 10 -49 0 -84 4 -84 10
0 6 -31 10 -74 10 -41 0 -78 5 -81 10 -3 6 -33 10 -65 10 -32 0 -62 5 -65 10
-3 6 -33 10 -65 10 -32 0 -61 4 -64 9 -3 5 -58 12 -121 16 -63 4 -118 11 -121
16 -3 5 -30 9 -60 9 -30 0 -54 5 -54 10 0 6 -24 10 -54 10 -30 0 -58 5 -61 10
-3 6 -26 10 -51 10 -24 0 -44 5 -44 10 0 6 -20 10 -44 10 -25 0 -48 4 -51 10
-3 5 -26 10 -50 10 -24 0 -47 5 -50 10 -3 6 -24 10 -45 10 -21 0 -42 4 -45 10
-3 6 -25 10 -49 10 -23 0 -46 3 -50 8 -8 7 -122 28 -208 38 -27 3 -48 10 -48
15 0 5 -15 9 -34 9 -19 0 -38 5 -41 10 -3 6 -21 10 -40 10 -19 0 -37 5 -40 10
-3 6 -26 10 -51 10 -24 0 -44 5 -44 10 0 6 -15 10 -34 10 -19 0 -38 5 -41 10
-3 6 -21 10 -40 10 -19 0 -37 5 -40 10 -3 6 -17 10 -31 10 -13 0 -24 4 -24 9
0 5 -32 12 -70 16 -39 4 -73 11 -76 16 -3 5 -21 9 -40 9 -19 0 -34 5 -34 10 0
6 -11 10 -24 10 -14 0 -28 4 -31 10 -3 5 -21 10 -40 10 -19 0 -37 4 -40 10 -3
5 -17 10 -30 10 -13 0 -27 5 -30 10 -3 6 -22 10 -41 10 -19 0 -34 5 -34 10 0
6 -11 10 -24 10 -14 0 -28 5 -31 10 -3 6 -17 10 -30 10 -13 0 -27 5 -30 10 -3
6 -17 10 -30 10 -13 0 -26 4 -29 9 -3 5 -30 12 -61 16 -30 3 -57 11 -60 16 -4
5 -17 9 -30 9 -13 0 -27 5 -30 10 -3 6 -17 10 -30 10 -13 0 -27 5 -30 10 -3 6
-17 10 -31 10 -13 0 -24 5 -24 10 0 6 -11 10 -24 10 -14 0 -28 5 -31 10 -3 6
-17 10 -30 10 -13 0 -27 5 -30 10 -3 6 -15 10 -25 10 -11 0 -34 8 -53 19 -18
10 -52 22 -75 26 -23 4 -44 11 -48 16 -3 5 -14 9 -24 9 -11 0 -35 9 -55 20
-20 11 -44 20 -55 20 -10 0 -22 5 -25 10 -3 6 -17 10 -31 10 -13 0 -24 5 -24
10 0 6 -9 10 -20 10 -11 0 -20 5 -20 10 0 6 -9 10 -20 10 -11 0 -35 9 -55 20
-20 11 -43 20 -53 20 -9 0 -30 7 -46 15 -15 8 -37 15 -47 15 -11 0 -19 5 -19
10 0 6 -9 10 -20 10 -11 0 -20 5 -20 10 0 6 -9 10 -19 10 -10 0 -45 14 -76 30
-31 17 -63 30 -69 30 -7 0 -35 11 -62 25 -27 14 -54 25 -60 25 -6 0 -55 22
-109 50 -54 28 -106 50 -117 50 -10 0 -18 5 -18 10 0 6 -9 10 -20 10 -11 0
-20 5 -20 10 0 6 -9 10 -20 10 -11 0 -20 5 -20 10 0 6 -5 10 -12 10 -16 0
-282 132 -286 142 -2 4 -12 8 -23 8 -10 0 -19 3 -19 8 0 7 -73 42 -89 42 -5 0
-14 7 -21 15 -6 8 -46 31 -88 52 -43 20 -78 41 -80 45 -2 4 -11 8 -21 8 -9 0
-23 9 -31 20 -8 11 -18 20 -23 20 -14 0 -96 40 -102 50 -3 5 -35 23 -70 40
-35 17 -67 35 -70 40 -4 6 -25 19 -48 30 -55 27 -78 41 -98 63 -9 9 -24 17
-33 17 -9 0 -16 5 -16 10 0 6 -6 10 -13 10 -8 0 -22 9 -32 20 -10 11 -23 20
-28 20 -6 0 -19 7 -29 17 -19 17 -49 36 -83 52 -12 5 -27 16 -34 25 -7 9 -19
16 -26 16 -6 0 -20 9 -30 20 -10 11 -24 20 -32 20 -7 0 -13 4 -13 9 0 5 -16
16 -35 25 -19 9 -38 22 -42 29 -9 13 -36 32 -68 46 -11 5 -31 21 -44 35 -14
14 -30 26 -36 26 -6 0 -24 13 -40 30 -16 16 -34 30 -40 30 -6 0 -22 11 -35 25
-13 14 -29 25 -35 25 -6 0 -24 13 -40 30 -16 16 -34 30 -40 30 -6 0 -29 18
-50 40 -21 22 -44 40 -50 40 -6 0 -26 16 -45 35 -19 19 -39 35 -44 35 -6 0
-33 23 -60 50 -27 28 -53 50 -57 50 -5 0 -33 25 -64 55 -30 30 -58 55 -63 55
-4 0 -71 63 -147 140 -77 77 -144 140 -150 140 -13 0 -85 72 -85 85 0 5 -59
68 -130 139 -72 71 -130 133 -130 137 0 5 -27 36 -60 70 -33 33 -60 65 -60 70
0 4 -20 29 -45 53 -25 25 -45 49 -45 54 0 4 -18 26 -40 47 -22 21 -40 44 -40
50 0 6 -11 22 -25 35 -14 13 -25 29 -25 35 0 6 -13 24 -30 40 -17 16 -30 34
-30 41 0 6 -7 18 -16 25 -9 7 -20 22 -25 34 -19 39 -37 67 -63 94 -14 15 -26
32 -26 37 0 6 -9 19 -20 29 -11 10 -20 24 -20 32 0 7 -4 13 -10 13 -5 0 -10 7
-10 16 0 9 -11 30 -25 48 -14 17 -29 36 -33 41 -4 6 -16 27 -25 47 -10 20 -22
40 -27 43 -5 3 -23 34 -40 69 -16 35 -37 69 -45 76 -8 7 -15 17 -15 23 0 15
-53 121 -62 125 -4 2 -8 12 -8 22 0 10 -4 20 -8 22 -11 4 -102 191 -102 209 0
20 -23 69 -32 69 -5 0 -8 9 -8 20 0 11 -4 20 -10 20 -5 0 -10 9 -10 20 0 11
-9 35 -20 55 -11 20 -20 44 -20 55 0 10 -4 22 -10 25 -5 3 -10 15 -10 25 0 11
-9 35 -20 55 -11 19 -23 53 -26 75 -4 22 -11 43 -15 46 -5 3 -9 16 -9 29 0 13
-4 27 -10 30 -5 3 -10 22 -10 41 0 19 -4 34 -10 34 -5 0 -10 14 -10 30 0 17
-4 30 -10 30 -5 0 -10 15 -10 34 0 19 -4 38 -10 41 -5 3 -10 21 -10 40 0 19
-5 37 -10 40 -6 3 -10 19 -10 35 0 16 -5 32 -10 35 -6 3 -10 25 -10 49 0 23
-3 46 -7 50 -9 9 -12 25 -20 119 -3 43 -10 80 -15 83 -4 3 -8 32 -8 64 0 32
-5 62 -10 65 -6 3 -10 48 -10 101 0 56 -4 94 -10 94 -6 0 -10 127 -10 360 0
233 4 360 10 360 6 0 10 38 10 95 0 57 4 95 10 95 6 0 10 28 10 64 0 36 4 67
9 70 5 3 12 49 16 101 4 52 11 97 16 101 5 3 9 25 9 49 0 24 4 47 10 50 5 3
10 19 10 35 0 16 5 32 10 35 6 3 10 21 10 40 0 19 5 37 10 40 6 3 10 22 10 41
0 19 5 34 10 34 6 0 10 14 10 30 0 17 5 30 10 30 6 0 10 11 10 24 0 14 5 28
10 31 6 3 10 21 10 40 0 19 4 36 9 39 4 3 11 24 15 46 3 22 11 40 16 40 6 0
10 11 10 24 0 14 5 28 10 31 6 3 10 15 10 25 0 11 9 35 20 55 11 20 20 44 20
55 0 10 5 22 10 25 6 3 10 17 10 31 0 13 5 24 10 24 6 0 10 9 10 20 0 11 3 20
8 20 8 0 42 74 42 93 0 15 82 181 92 185 5 2 8 12 8 23 0 10 5 19 10 19 6 0
10 9 10 20 0 11 3 20 8 20 7 0 42 73 42 89 0 5 7 14 15 21 9 7 25 33 35 56 11
24 24 45 29 49 5 3 22 31 37 63 16 31 34 61 41 65 7 4 13 14 13 21 0 7 9 21
20 31 11 10 20 23 20 30 0 7 9 20 20 30 11 10 20 23 20 30 0 7 9 20 20 30 11
10 20 24 20 30 0 7 7 19 16 26 9 7 20 22 25 34 19 39 37 67 63 94 14 15 26 32
26 37 0 6 9 19 20 29 11 10 20 23 20 30 0 6 16 26 35 45 19 19 35 38 35 43 0
5 18 26 40 47 22 21 40 44 40 52 0 7 16 26 35 43 19 16 35 35 35 42 0 7 32 43
70 80 39 37 70 72 70 78 0 12 563 578 581 584 6 2 40 32 76 67 36 35 69 64 74
64 4 0 30 23 57 50 27 28 54 50 59 50 5 0 27 18 48 40 21 22 44 40 50 40 6 0
26 16 45 35 19 19 39 35 45 35 6 0 29 18 50 40 21 22 44 40 50 40 6 0 22 11
35 25 13 14 29 25 35 25 7 0 20 9 30 20 10 11 23 20 30 20 6 0 24 14 40 30 16
17 33 30 37 30 5 0 21 11 36 25 15 14 31 25 37 25 6 0 17 9 25 20 8 11 21 20
30 20 9 0 22 9 30 20 8 11 19 20 26 20 6 0 19 9 29 20 10 11 24 20 30 20 7 0
19 7 26 16 7 9 22 20 34 25 31 15 63 34 82 51 10 8 34 22 54 31 20 9 42 23 49
32 7 8 16 15 21 15 5 0 18 8 29 18 25 21 81 55 137 82 23 11 44 24 48 30 3 5
34 23 69 40 35 16 69 36 75 44 7 8 26 18 42 21 17 4 35 15 42 26 6 10 20 19
29 19 10 0 18 5 18 10 0 6 9 10 19 10 11 0 21 4 23 8 2 6 48 31 218 117 11 5
20 13 20 17 0 5 9 8 20 8 11 0 20 5 20 10 0 6 9 10 19 10 11 0 21 4 23 8 3 7
156 84 226 113 17 8 32 17 32 21 0 5 13 8 29 8 16 0 31 3 33 8 5 11 208 109
243 117 16 4 32 10 35 13 9 12 91 52 106 52 7 0 29 9 49 20 20 11 42 20 49 20
17 0 100 42 104 53 2 4 12 7 22 7 10 0 31 7 46 15 16 8 37 15 46 15 10 0 33 9
53 20 20 11 44 20 55 20 10 0 22 5 25 10 3 6 17 10 31 10 13 0 24 3 24 8 0 10
50 32 71 32 10 0 21 5 24 10 3 6 15 10 25 10 11 0 34 8 53 19 18 10 52 22 75
26 23 4 44 11 48 16 3 5 16 9 29 9 13 0 27 5 30 10 3 6 17 10 30 10 13 0 27 5
30 10 3 6 17 10 31 10 13 0 24 5 24 10 0 6 14 10 30 10 17 0 30 5 30 10 0 6
11 10 24 10 14 0 28 5 31 10 3 6 17 10 30 10 13 0 27 5 30 10 3 6 17 10 30 10
13 0 26 4 30 9 3 6 26 13 50 17 25 3 48 10 51 15 3 5 16 9 29 9 13 0 27 5 30
10 3 6 21 10 40 10 19 0 37 5 40 10 3 6 17 10 31 10 13 0 24 5 24 10 0 6 11
10 24 10 14 0 28 5 31 10 3 6 19 10 36 10 16 0 38 5 48 12 16 9 24 6 55 -25
20 -20 36 -41 36 -46 0 -17 138 -151 155 -151 8 0 15 -4 15 -10 0 -5 9 -10 20
-10 11 0 35 -9 55 -20 20 -11 43 -20 53 -20 9 0 30 -7 46 -15 15 -8 37 -15 47
-15 11 0 19 -4 19 -10 0 -5 11 -10 24 -10 14 0 28 -4 31 -10 4 -6 -8 -10 -29
-10 -19 0 -38 -4 -41 -10 -3 -5 -22 -10 -41 -10 -19 0 -34 -4 -34 -10 0 -5
-15 -10 -34 -10 -19 0 -38 -4 -41 -10 -3 -5 -17 -10 -30 -10 -13 0 -27 -4 -30
-10 -3 -5 -21 -10 -40 -10 -19 0 -37 -4 -40 -10 -3 -5 -19 -10 -35 -10 -16 0
-31 -4 -35 -10 -3 -5 -33 -12 -66 -16 -32 -4 -62 -11 -65 -15 -3 -5 -16 -9
-29 -9 -13 0 -27 -4 -30 -10 -3 -5 -17 -10 -31 -10 -13 0 -24 -4 -24 -10 0 -5
-15 -10 -34 -10 -19 0 -38 -4 -41 -10 -3 -5 -17 -10 -30 -10 -13 0 -27 -4 -30
-10 -3 -5 -17 -10 -31 -10 -13 0 -24 -4 -24 -10 0 -5 -11 -10 -24 -10 -14 0
-28 -4 -31 -10 -3 -5 -17 -10 -30 -10 -13 0 -27 -4 -30 -10 -3 -5 -17 -10 -30
-10 -13 0 -26 -4 -29 -9 -4 -5 -29 -12 -56 -16 -28 -4 -50 -11 -50 -16 0 -5
-11 -9 -24 -9 -14 0 -28 -4 -31 -10 -3 -5 -17 -10 -30 -10 -13 0 -27 -4 -30
-10 -3 -5 -17 -10 -30 -10 -13 0 -27 -4 -30 -10 -3 -5 -17 -10 -31 -10 -13 0
-24 -4 -24 -10 0 -5 -9 -10 -20 -10 -11 0 -20 -4 -20 -10 0 -5 -11 -10 -24
-10 -14 0 -28 -4 -31 -10 -3 -5 -14 -10 -24 -10 -10 0 -32 -7 -47 -15 -16 -8
-39 -15 -51 -15 -12 0 -25 -4 -28 -10 -3 -5 -17 -10 -31 -10 -13 0 -24 -4 -24
-10 0 -5 -9 -10 -20 -10 -11 0 -20 -4 -20 -10 0 -5 -9 -10 -20 -10 -11 0 -35
-9 -55 -20 -20 -11 -42 -20 -49 -20 -8 0 -31 -9 -53 -19 -21 -11 -56 -27 -78
-36 -22 -9 -48 -20 -57 -25 -10 -6 -23 -10 -30 -10 -7 0 -49 -17 -93 -39 -44
-21 -116 -55 -160 -76 -44 -20 -88 -41 -97 -46 -10 -5 -24 -9 -32 -9 -17 0
-100 -42 -104 -52 -2 -5 -12 -8 -22 -8 -10 0 -20 -4 -22 -8 -3 -7 -51 -31
-248 -125 -25 -12 -46 -25 -48 -29 -2 -5 -11 -8 -19 -8 -9 0 -23 -8 -32 -18
-16 -18 -159 -92 -178 -92 -5 0 -17 -8 -26 -18 -9 -10 -32 -24 -52 -32 -19 -8
-35 -17 -35 -22 0 -4 -7 -8 -16 -8 -9 0 -24 -8 -33 -18 -17 -18 -56 -41 -157
-91 -34 -17 -67 -38 -74 -46 -7 -8 -18 -15 -25 -15 -6 0 -20 -9 -30 -20 -10
-11 -23 -20 -30 -20 -7 0 -20 -9 -29 -19 -10 -11 -30 -23 -45 -26 -15 -3 -33
-15 -41 -25 -8 -11 -21 -20 -30 -20 -9 0 -22 -9 -30 -20 -8 -11 -19 -20 -26
-20 -6 0 -19 -9 -29 -20 -10 -11 -23 -20 -30 -20 -7 0 -20 -9 -30 -20 -10 -11
-23 -20 -30 -20 -6 0 -22 -11 -35 -25 -13 -14 -29 -25 -35 -25 -7 0 -20 -9
-30 -20 -10 -11 -23 -20 -30 -20 -6 0 -24 -13 -40 -30 -16 -16 -34 -30 -40
-30 -6 0 -22 -11 -35 -25 -13 -14 -28 -25 -33 -25 -5 0 -22 -13 -37 -30 -15
-16 -33 -30 -40 -30 -7 0 -25 -13 -40 -30 -15 -16 -32 -30 -37 -30 -5 0 -24
-16 -43 -35 -19 -19 -39 -35 -45 -35 -6 0 -33 -22 -60 -50 -27 -27 -54 -50
-60 -50 -6 0 -35 -25 -65 -55 -30 -30 -59 -55 -65 -55 -6 0 -53 -43 -105 -95
-52 -52 -99 -95 -105 -95 -13 0 -265 -252 -265 -265 0 -6 -43 -53 -95 -105
-52 -52 -95 -99 -95 -105 0 -6 -25 -35 -55 -65 -30 -30 -55 -59 -55 -65 0 -6
-18 -29 -40 -50 -22 -21 -40 -44 -40 -50 0 -6 -11 -22 -25 -35 -14 -13 -25
-29 -25 -35 0 -6 -13 -24 -30 -40 -16 -16 -30 -33 -30 -38 0 -5 -12 -21 -28
-35 -15 -15 -36 -44 -47 -65 -11 -21 -28 -45 -37 -54 -10 -9 -18 -21 -18 -28
0 -7 -9 -20 -20 -30 -11 -10 -20 -23 -20 -30 0 -7 -9 -20 -20 -30 -11 -10 -20
-23 -20 -30 0 -7 -9 -20 -19 -29 -11 -10 -23 -31 -26 -46 -3 -16 -13 -34 -21
-41 -8 -6 -22 -28 -31 -48 -9 -20 -25 -43 -35 -52 -10 -9 -18 -23 -18 -32 0
-8 -3 -17 -7 -19 -5 -1 -18 -23 -30 -48 -92 -193 -139 -285 -145 -288 -4 -2
-8 -12 -8 -23 0 -10 -3 -19 -7 -19 -10 0 -33 -49 -33 -69 0 -9 -7 -29 -15 -45
-8 -15 -15 -34 -15 -42 0 -7 -9 -29 -20 -49 -11 -20 -20 -44 -20 -55 0 -11 -4
-20 -10 -20 -5 0 -10 -9 -10 -20 0 -11 -9 -35 -20 -55 -11 -20 -20 -44 -20
-55 0 -10 -4 -22 -10 -25 -5 -3 -10 -21 -10 -40 0 -19 -4 -36 -9 -40 -6 -3
-13 -26 -17 -50 -3 -25 -10 -48 -15 -51 -5 -3 -9 -20 -9 -39 0 -19 -4 -37 -10
-40 -5 -3 -10 -22 -10 -41 0 -19 -4 -34 -10 -34 -5 0 -10 -20 -10 -44 0 -25
-5 -48 -10 -51 -6 -3 -10 -26 -10 -51 0 -24 -4 -44 -10 -44 -5 0 -10 -20 -10
-44 0 -25 -4 -48 -10 -51 -5 -3 -10 -35 -10 -71 0 -36 -4 -64 -10 -64 -6 0
-10 -38 -10 -94 0 -53 -4 -98 -10 -101 -6 -4 -10 -123 -10 -325 0 -202 4 -321
10 -325 6 -3 10 -46 10 -95 0 -49 5 -92 10 -95 6 -3 10 -35 10 -71 0 -36 4
-64 10 -64 6 0 10 -20 10 -44 0 -25 5 -48 10 -51 6 -3 10 -26 10 -51 0 -24 5
-44 10 -44 6 0 10 -20 10 -44 0 -25 4 -48 10 -51 6 -3 10 -21 10 -40 0 -19 5
-37 10 -40 6 -3 10 -21 10 -40 0 -19 4 -36 9 -40 6 -3 13 -26 17 -50 3 -25 10
-48 15 -51 5 -3 9 -20 9 -39 0 -19 5 -37 10 -40 6 -3 10 -17 10 -31 0 -13 5
-24 10 -24 6 0 10 -9 10 -20 0 -11 5 -20 10 -20 6 0 10 -11 10 -24 0 -14 4
-28 10 -31 6 -3 10 -15 10 -25 0 -11 9 -35 20 -55 11 -20 20 -44 20 -55 0 -10
4 -21 9 -25 5 -3 12 -19 16 -35 4 -16 44 -104 91 -196 46 -92 84 -173 84 -180
0 -8 5 -14 10 -14 6 0 10 -9 10 -20 0 -11 3 -20 8 -20 4 0 13 -15 21 -32 8
-18 21 -42 31 -53 9 -11 24 -36 33 -56 9 -20 23 -42 31 -48 8 -7 18 -25 21
-41 3 -15 15 -36 26 -46 10 -9 19 -22 19 -28 0 -7 9 -18 20 -26 11 -8 20 -21
20 -30 0 -9 9 -22 20 -30 11 -8 20 -20 20 -26 0 -6 7 -18 16 -25 9 -7 20 -22
25 -34 19 -39 37 -67 63 -94 14 -15 26 -32 26 -37 0 -6 14 -23 30 -39 17 -16
30 -34 30 -40 0 -6 11 -22 25 -35 14 -13 25 -28 25 -35 0 -6 22 -33 50 -60 27
-27 50 -54 50 -60 0 -6 20 -31 45 -55 25 -24 45 -49 45 -55 0 -6 47 -57 105
-115 58 -58 105 -108 105 -113 0 -11 217 -227 227 -227 5 0 55 -47 113 -105
58 -58 109 -105 115 -105 6 0 35 -25 65 -55 30 -30 59 -55 65 -55 6 0 31 -20
55 -45 24 -25 49 -45 55 -45 6 0 29 -18 50 -40 21 -22 44 -40 50 -40 6 0 24
-14 40 -30 16 -16 34 -30 40 -30 6 0 22 -11 35 -25 13 -14 29 -25 36 -25 6 0
22 -13 35 -30 13 -16 30 -30 37 -30 8 0 26 -12 41 -27 28 -30 53 -47 86 -62
12 -5 27 -16 34 -25 7 -9 19 -16 25 -16 7 0 25 -14 41 -30 16 -16 34 -30 41
-30 6 0 18 -7 25 -16 7 -9 22 -20 34 -25 31 -15 63 -34 82 -50 10 -8 32 -21
48 -29 17 -8 37 -23 46 -32 9 -10 22 -18 29 -18 7 0 20 -8 29 -18 9 -10 32
-26 51 -36 79 -40 121 -64 138 -78 9 -8 33 -22 53 -31 20 -9 42 -23 49 -32 7
-8 19 -15 26 -15 8 0 14 -4 14 -10 0 -5 9 -10 20 -10 11 0 20 -3 20 -8 0 -4 9
-12 19 -17 11 -6 67 -34 125 -63 58 -29 108 -58 111 -63 7 -10 89 -49 104 -49
6 0 11 -4 11 -10 0 -5 9 -10 19 -10 11 0 21 -4 23 -8 4 -10 270 -142 286 -142
7 0 12 -4 12 -10 0 -5 8 -10 18 -10 11 0 63 -23 117 -50 54 -28 103 -50 110
-50 16 0 65 -24 65 -32 0 -3 13 -9 30 -13 16 -4 32 -11 35 -16 4 -5 14 -9 25
-9 10 0 44 -13 75 -30 31 -16 62 -30 69 -30 18 0 66 -24 66 -32 0 -5 9 -8 20
-8 11 0 35 -9 55 -20 20 -11 43 -20 53 -20 9 0 30 -7 46 -15 15 -8 35 -15 42
-15 8 0 22 -4 32 -9 77 -39 106 -51 122 -51 11 0 22 -4 25 -10 3 -5 15 -10 25
-10 11 0 35 -9 55 -20 20 -11 44 -20 55 -20 11 0 20 -4 20 -10 0 -5 11 -10 24
-10 14 0 27 -4 30 -9 4 -5 29 -12 56 -16 27 -4 52 -11 56 -16 3 -5 16 -9 29
-9 13 0 27 -4 30 -10 3 -5 17 -10 31 -10 13 0 24 -4 24 -10 0 -5 11 -10 24
-10 14 0 28 -4 31 -10 3 -5 17 -10 30 -10 13 0 27 -4 30 -10 3 -6 17 -10 30
-10 13 0 27 -5 30 -10 3 -6 17 -10 31 -10 13 0 24 -4 24 -10 0 -5 15 -10 34
-10 19 0 37 -4 40 -9 4 -5 29 -12 56 -16 27 -4 52 -11 56 -16 3 -5 18 -9 34
-9 16 0 32 -5 35 -10 3 -6 17 -10 30 -10 13 0 27 -5 30 -10 3 -5 21 -10 40
-10 19 0 37 -4 40 -10 3 -5 17 -10 31 -10 13 0 24 -4 24 -10 0 -5 15 -10 34
-10 19 0 38 -4 41 -10 3 -5 21 -10 40 -10 19 0 37 -4 40 -10 3 -5 17 -10 30
-10 13 0 26 -4 30 -9 3 -5 34 -13 70 -16 36 -4 68 -11 71 -16 3 -5 20 -9 39
-9 19 0 37 -4 40 -10 3 -5 24 -10 45 -10 21 0 42 -4 45 -10 3 -5 21 -10 40
-10 19 0 37 -4 40 -10 3 -5 22 -10 41 -10 19 0 34 -4 34 -10 0 -5 20 -10 44
-10 25 0 48 -4 51 -10 3 -5 21 -10 40 -10 19 0 37 -5 40 -10 3 -5 24 -10 45
-10 21 0 41 -4 44 -9 3 -5 46 -12 96 -16 49 -4 90 -11 90 -16 0 -5 20 -9 44
-9 25 0 48 -4 51 -10 3 -5 31 -10 61 -10 30 0 54 -4 54 -10 0 -5 20 -10 44
-10 25 0 48 -4 51 -10 3 -5 31 -10 61 -10 30 0 54 -4 54 -10 0 -5 24 -10 54
-10 30 0 58 -4 61 -10 3 -5 33 -10 65 -10 32 0 62 -4 65 -10 3 -5 35 -10 70
-10 35 0 67 -5 70 -10 3 -5 33 -10 65 -10 32 0 61 -4 64 -9 3 -5 69 -12 146
-16 77 -4 143 -11 146 -16 3 -5 41 -9 84 -9 43 0 82 -4 85 -10 3 -6 48 -10
101 -10 56 0 94 -4 94 -10 0 -6 43 -10 109 -10 63 0 112 -4 116 -10 4 -6 60
-10 135 -10 75 0 131 -4 135 -10 4 -6 75 -10 180 -10 105 0 176 -4 180 -10 4
-7 263 -10 745 -10 482 0 741 3 745 10 4 6 75 10 180 10 105 0 176 4 180 10 4
6 58 10 130 10 72 0 126 4 130 10 4 6 53 10 115 10 62 0 111 4 115 10 3 6 46
10 95 10 49 0 92 5 95 10 3 6 42 10 85 10 43 0 81 4 84 9 3 5 71 12 151 16 80
4 148 11 151 16 3 5 32 9 64 9 32 0 62 5 65 10 3 5 33 10 65 10 32 0 62 4 65
10 3 5 30 10 60 10 30 0 57 5 60 10 3 6 28 10 55 10 27 0 52 5 55 10 3 6 35
10 70 10 35 0 67 5 70 10 3 5 24 10 45 10 21 0 42 5 45 10 3 6 30 10 60 10 30
0 57 5 60 10 3 6 24 10 45 10 21 0 41 4 44 9 3 5 44 12 91 16 47 4 87 11 91
16 3 5 20 9 39 9 19 0 37 5 40 10 3 6 26 10 51 10 24 0 44 5 44 10 0 6 20 10
44 10 25 0 48 5 51 10 3 6 21 10 40 10 19 0 37 5 40 10 3 5 22 10 41 10 19 0
34 5 34 10 0 6 15 10 34 10 19 0 38 5 41 10 3 6 19 10 36 10 16 0 37 4 47 10
9 5 43 12 74 15 32 4 60 11 63 16 4 5 21 9 40 9 19 0 37 5 40 10 3 6 22 10 41
10 19 0 34 5 34 10 0 6 15 10 34 10 19 0 38 5 41 10 3 6 17 10 30 10 13 0 27
4 30 10 3 6 22 10 41 10 19 0 34 5 34 10 0 6 11 10 24 10 14 0 28 5 31 10 3 6
21 10 40 10 19 0 36 4 39 9 4 5 29 12 56 16 28 4 50 11 50 16 0 5 15 9 34 9
19 0 38 5 41 10 3 6 17 10 30 10 13 0 27 5 30 10 3 6 17 10 30 10 13 0 27 5
30 10 3 6 17 10 31 10 13 0 24 5 24 10 0 6 11 10 24 10 14 0 28 5 31 10 3 6
17 10 30 10 13 0 27 5 30 10 3 6 17 10 30 10 13 0 26 4 29 9 4 5 29 12 56 16
28 4 50 11 50 16 0 5 9 9 20 9 11 0 35 9 55 20 20 11 44 20 55 20 10 0 22 5
25 10 3 6 17 10 31 10 13 0 24 5 24 10 0 6 9 10 20 10 11 0 35 9 55 20 20 11
42 20 50 20 8 0 29 8 47 18 18 11 50 22 71 26 20 4 37 11 37 16 0 6 9 10 20
10 11 0 35 9 55 20 20 11 42 20 50 20 8 0 30 9 50 20 20 11 42 20 50 20 15 0
82 35 100 51 5 5 18 9 30 9 11 0 51 16 89 35 39 19 75 35 81 35 17 0 65 24 65
33 0 4 9 7 19 7 11 0 21 4 23 8 4 11 112 62 130 62 18 0 141 61 146 73 2 4 12
7 22 7 10 0 20 3 22 8 3 7 59 38 218 118 52 27 97 52 98 56 2 4 12 8 23 8 10
0 19 5 19 10 0 6 6 10 13 10 8 0 22 9 32 20 10 11 22 20 27 20 15 0 96 39 103
50 3 5 34 23 69 40 35 16 69 37 76 45 7 8 19 15 26 15 8 0 14 4 14 9 0 5 8 12
18 15 23 8 58 29 79 48 10 8 34 22 54 31 20 9 42 23 49 32 7 8 17 15 23 15 6
0 19 7 29 17 19 17 49 36 83 52 12 5 27 16 34 25 7 9 19 16 25 16 6 0 18 9 26
20 8 11 21 20 30 20 9 0 22 9 30 20 8 11 21 20 30 20 8 0 21 9 28 20 7 11 18
20 25 20 8 0 24 11 37 25 13 14 29 25 35 25 7 0 20 9 30 20 10 11 23 20 30 20
6 0 24 13 40 30 16 16 34 30 40 30 6 0 26 16 45 35 19 19 39 35 45 35 6 0 24
14 40 30 16 17 34 30 40 30 6 0 26 16 45 35 19 19 38 35 44 35 5 0 31 22 57
50 26 28 52 50 58 50 6 0 40 29 75 65 35 36 68 65 73 65 13 0 586 575 594 597
3 10 30 40 58 66 28 26 51 53 51 58 0 6 12 23 28 37 15 15 45 50 67 77 22 28
43 52 47 53 5 2 8 9 8 16 0 7 14 25 30 41 17 16 30 34 30 40 0 6 11 22 25 35
14 13 25 29 25 35 0 7 9 20 20 30 11 10 20 23 20 30 0 6 14 24 30 40 17 16 30
33 30 39 0 5 7 18 17 28 18 20 32 44 62 104 11 22 27 47 36 54 8 7 15 19 15
26 0 8 5 14 10 14 6 0 10 5 10 12 0 6 7 20 16 29 16 18 40 61 120 219 21 41
42 76 46 78 4 2 8 12 8 23 0 10 5 19 10 19 6 0 10 9 10 20 0 11 3 20 8 20 9 0
42 74 42 94 0 8 13 40 30 71 17 31 30 66 30 76 0 10 5 19 10 19 6 0 10 9 10
20 0 11 5 20 10 20 6 0 10 9 10 20 0 11 9 35 20 55 11 20 20 44 20 55 0 10 4
21 9 24 5 3 12 26 15 51 4 24 11 47 17 50 5 4 9 17 9 30 0 13 5 27 10 30 6 3
10 21 10 40 0 19 5 37 10 40 6 3 10 17 10 31 0 13 5 24 10 24 6 0 10 18 10 40
0 22 5 40 10 40 6 0 10 15 10 34 0 19 5 38 10 41 6 3 10 26 10 50 0 24 5 47
10 50 6 3 10 24 10 45 0 21 4 41 9 44 5 3 12 58 16 121 4 63 11 118 16 121 5
3 9 50 9 104 0 55 4 102 10 105 6 4 10 107 10 275 0 168 -4 271 -10 275 -6 3
-10 50 -10 105 0 54 -4 101 -9 104 -4 3 -11 56 -15 118 -4 62 -11 117 -17 123
-5 5 -9 28 -9 51 0 24 -4 46 -10 49 -5 3 -10 24 -10 45 0 21 -4 42 -10 45 -5
3 -10 21 -10 40 0 19 -4 37 -10 40 -5 3 -10 22 -10 41 0 19 -4 34 -10 34 -5 0
-10 11 -10 24 0 14 -4 28 -10 31 -5 3 -10 21 -10 40 0 19 -4 37 -10 40 -5 3
-10 17 -10 30 0 13 -4 26 -9 29 -5 4 -12 29 -16 56 -4 28 -11 50 -16 50 -5 0
-9 9 -9 20 0 11 -9 35 -20 55 -11 20 -20 42 -20 50 0 8 -9 30 -20 50 -11 20
-20 44 -20 54 0 11 -3 21 -7 23 -12 5 -53 88 -53 106 0 19 -91 205 -102 210
-4 2 -8 12 -8 22 0 10 -4 20 -8 22 -4 2 -20 28 -36 58 -53 103 -73 140 -88
158 -8 9 -22 34 -32 54 -9 20 -21 40 -26 43 -5 3 -19 26 -31 50 -12 25 -26 45
-31 45 -4 0 -8 6 -8 13 0 8 -9 22 -20 32 -11 10 -20 23 -20 30 0 7 -9 20 -20
30 -11 10 -20 23 -20 30 0 6 -12 22 -26 36 -14 13 -30 33 -35 44 -21 43 -38
68 -73 104 -20 20 -36 41 -36 47 0 6 -13 23 -30 39 -16 16 -30 34 -30 40 0 6
-20 31 -45 55 -25 24 -45 49 -45 55 0 6 -25 35 -55 64 -30 30 -55 58 -55 63 0
12 -573 588 -585 588 -6 0 -40 29 -75 65 -35 36 -69 65 -75 65 -6 0 -33 23
-60 50 -27 28 -54 50 -60 50 -6 0 -26 16 -45 35 -19 19 -39 35 -45 35 -6 0
-29 18 -50 40 -21 22 -44 40 -50 40 -6 0 -24 14 -40 30 -16 17 -34 30 -40 30
-6 0 -22 11 -35 25 -13 14 -28 25 -35 25 -6 0 -17 9 -25 20 -8 11 -21 20 -28
20 -8 0 -27 14 -42 30 -15 17 -31 30 -36 30 -4 0 -16 7 -26 17 -19 17 -49 36
-83 52 -12 5 -27 16 -34 25 -7 9 -19 16 -26 16 -6 0 -20 9 -30 20 -10 11 -23
20 -28 20 -6 0 -19 7 -29 17 -20 18 -50 36 -86 52 -12 6 -25 18 -28 26 -4 8
-15 15 -25 15 -10 0 -19 5 -19 10 0 6 -8 10 -18 10 -10 0 -24 9 -32 20 -8 11
-19 20 -24 20 -5 0 -18 7 -28 16 -17 17 -52 36 -158 90 -30 15 -62 36 -71 46
-9 10 -24 18 -33 18 -9 0 -16 5 -16 10 0 6 -9 10 -20 10 -11 0 -20 3 -20 8 0
4 -9 12 -19 17 -11 6 -76 38 -145 73 -69 35 -128 67 -131 72 -8 13 -369 190
-388 190 -9 0 -17 4 -17 8 0 5 -17 15 -37 23 -20 8 -66 29 -102 47 -36 17 -70
32 -76 32 -17 0 -65 24 -65 33 0 4 -9 7 -20 7 -11 0 -20 5 -20 10 0 6 -8 10
-18 10 -10 0 -41 11 -68 25 -27 14 -56 25 -66 25 -18 0 -101 41 -106 53 -2 4
-12 7 -23 7 -10 0 -34 9 -54 20 -20 11 -44 20 -55 20 -10 0 -22 5 -25 10 -3 6
-15 10 -25 10 -11 0 -34 8 -53 19 -18 10 -48 22 -65 26 -18 3 -34 11 -37 16
-4 5 -17 9 -30 9 -13 0 -27 5 -30 10 -3 6 -17 10 -30 10 -13 0 -27 5 -30 10
-3 6 -17 10 -31 10 -13 0 -24 5 -24 10 0 6 -9 10 -20 10 -11 0 -20 5 -20 10 0
6 -11 10 -24 10 -14 0 -28 5 -31 10 -3 6 -17 10 -30 10 -13 0 -27 5 -30 10 -3
6 -17 10 -30 10 -13 0 -26 4 -29 9 -3 5 -26 12 -51 15 -24 4 -47 11 -50 17 -4
5 -17 9 -30 9 -13 0 -27 5 -30 10 -3 6 -17 10 -30 10 -13 0 -27 5 -30 10 -3 6
-17 10 -30 10 -13 0 -27 5 -30 10 -3 6 -17 10 -31 10 -13 0 -24 5 -24 10 0 6
-15 10 -34 10 -19 0 -38 5 -41 10 -3 6 -17 10 -30 10 -13 0 -27 5 -30 10 -3 6
-17 10 -30 10 -13 0 -27 5 -30 10 -3 6 -19 10 -35 10 -16 0 -31 4 -35 10 -3 5
-33 12 -66 16 -32 4 -62 11 -65 15 -3 5 -16 9 -29 9 -13 0 -27 5 -30 10 -3 6
-19 10 -35 10 -16 0 -32 5 -35 10 -3 6 -21 10 -40 10 -19 0 -37 5 -40 10 -3 6
-17 10 -31 10 -13 0 -24 5 -24 10 0 6 -18 10 -40 10 -22 0 -40 5 -40 10 0 6
-15 10 -34 10 -19 0 -38 5 -41 10 -3 6 -21 10 -40 10 -19 0 -36 4 -39 9 -3 5
-39 12 -81 16 -41 4 -77 11 -81 16 -3 5 -20 9 -39 9 -19 0 -37 5 -40 10 -3 6
-24 10 -45 10 -21 0 -42 5 -45 10 -3 6 -21 10 -40 10 -19 0 -37 5 -40 10 -3 6
-26 10 -51 10 -24 0 -44 5 -44 10 0 6 -20 10 -44 10 -25 0 -48 5 -51 10 -3 6
-26 10 -51 10 -24 0 -44 5 -44 10 0 6 -20 10 -44 10 -25 0 -47 4 -50 9 -3 4
-47 11 -98 15 -51 4 -97 11 -103 17 -5 5 -33 9 -62 9 -29 0 -53 5 -53 10 0 6
-24 10 -54 10 -30 0 -58 5 -61 10 -3 6 -35 10 -71 10 -36 0 -64 4 -64 10 0 6
-28 10 -65 10 -37 0 -65 4 -65 10 0 6 -28 10 -64 10 -36 0 -68 5 -71 10 -3 6
-33 10 -65 10 -32 0 -62 5 -65 10 -3 6 -42 10 -85 10 -43 0 -81 4 -84 9 -3 5
-85 12 -181 16 -96 4 -178 11 -181 16 -3 5 -54 9 -115 9 -66 0 -109 4 -109 10
0 6 -50 10 -129 10 -76 0 -132 4 -136 10 -4 6 -72 10 -170 10 -98 0 -166 4
-170 10 -4 6 -195 10 -541 10 -294 0 -534 4 -534 8 0 4 16 23 35 42 19 19 35
39 35 44 0 14 -101 116 -115 116 -6 0 -35 25 -65 55 -30 30 -59 55 -64 55 -5
0 -35 27 -67 60 -31 33 -64 60 -72 60 -8 0 -17 7 -21 15 -3 9 0 15 9 15 8 0
15 5 15 10 0 7 203 10 590 10 325 0 590 -4 590 -8z m5772 -2790 c7 -9 30 -26
51 -37 21 -11 50 -32 64 -47 15 -16 32 -28 38 -28 7 0 20 -9 30 -20 10 -11 24
-20 30 -20 7 0 19 -7 26 -16 7 -9 22 -20 34 -25 39 -19 67 -37 94 -63 15 -14
32 -26 37 -26 6 0 19 -9 29 -20 10 -11 24 -20 32 -20 7 0 13 -4 13 -8 0 -5 12
-15 28 -23 32 -16 91 -58 112 -79 8 -8 27 -21 43 -29 15 -8 27 -18 27 -23 0
-4 6 -8 14 -8 7 0 20 -7 27 -16 7 -9 22 -20 34 -25 39 -19 67 -37 94 -63 15
-14 32 -26 37 -26 6 0 19 -9 29 -20 10 -11 24 -20 30 -20 7 0 19 -7 26 -16 7
-9 22 -20 34 -25 31 -14 55 -31 85 -61 15 -16 34 -28 41 -28 8 0 21 -9 29 -20
8 -11 19 -20 26 -20 6 0 19 -9 29 -20 10 -11 23 -20 30 -20 7 0 20 -9 30 -20
10 -11 23 -20 30 -20 6 0 22 -11 35 -25 13 -14 29 -25 35 -25 7 0 20 -9 30
-20 10 -11 23 -20 30 -20 7 0 20 -9 30 -20 10 -11 23 -20 30 -20 7 0 20 -9 30
-20 10 -11 24 -20 30 -20 7 0 21 -11 31 -25 10 -14 26 -25 34 -25 9 0 22 -9
30 -20 8 -11 21 -20 30 -20 9 0 22 -9 30 -20 8 -11 19 -20 25 -20 7 0 22 -11
35 -25 13 -14 29 -25 35 -25 7 0 20 -9 30 -20 10 -11 23 -20 30 -20 7 0 20 -9
30 -20 10 -11 23 -20 30 -20 7 0 20 -9 30 -20 10 -11 23 -20 30 -20 6 0 22
-11 35 -25 13 -14 29 -25 35 -25 7 0 20 -9 30 -20 10 -11 23 -20 29 -20 7 0
18 -9 26 -20 8 -11 21 -20 30 -20 9 0 22 -9 30 -20 8 -11 19 -20 24 -20 6 0
22 -12 37 -26 27 -26 55 -44 94 -63 12 -5 27 -16 34 -25 7 -9 19 -16 26 -16 6
0 20 -9 30 -20 10 -11 23 -20 29 -20 5 0 22 -12 37 -26 28 -27 55 -45 97 -63
12 -6 25 -18 28 -26 4 -8 14 -15 23 -15 9 0 23 -9 31 -20 8 -11 21 -20 28 -20
8 0 23 -12 34 -26 12 -14 30 -30 42 -35 34 -16 65 -35 84 -52 10 -10 23 -17
29 -17 5 0 18 -9 28 -20 10 -11 23 -20 29 -20 5 0 22 -12 37 -26 27 -26 55
-44 94 -63 12 -5 27 -16 34 -25 7 -9 19 -16 25 -16 6 0 18 -9 26 -20 8 -11 21
-20 29 -20 7 0 21 -8 30 -18 22 -24 88 -72 99 -72 5 0 17 -9 27 -20 10 -11 23
-20 30 -20 7 0 20 -9 30 -20 10 -11 24 -20 30 -20 7 0 19 -7 26 -16 7 -9 22
-20 34 -24 19 -7 18 -9 -8 -19 -16 -6 -66 -11 -112 -11 -46 0 -87 -4 -90 -10
-3 -5 -46 -10 -95 -10 -49 0 -92 -4 -95 -10 -3 -5 -46 -10 -95 -10 -49 0 -92
-4 -95 -10 -3 -5 -46 -10 -95 -10 -49 0 -92 -4 -95 -10 -3 -5 -46 -10 -95 -10
-49 0 -92 -4 -95 -10 -3 -5 -46 -10 -95 -10 -49 0 -92 -4 -95 -10 -3 -5 -46
-10 -95 -10 -49 0 -92 -4 -95 -10 -3 -5 -46 -10 -95 -10 -49 0 -91 -4 -94 -9
-3 -5 -85 -12 -183 -16 -97 -4 -185 -12 -194 -18 -14 -9 -22 -7 -37 6 -10 9
-23 17 -29 17 -6 0 -16 7 -23 15 -7 9 -33 25 -56 35 -24 11 -46 24 -49 30 -3
6 -25 19 -49 30 -23 10 -49 26 -56 35 -7 8 -18 15 -26 15 -7 0 -17 6 -21 13
-4 7 -25 21 -45 30 -20 10 -40 22 -43 27 -3 6 -25 19 -49 30 -23 10 -49 26
-56 35 -7 8 -18 15 -25 15 -6 0 -20 9 -29 19 -10 11 -31 23 -46 26 -15 3 -36
15 -46 26 -9 10 -23 19 -31 19 -7 0 -13 5 -13 10 0 6 -8 10 -18 10 -10 0 -24
9 -32 20 -8 11 -21 20 -29 20 -7 0 -21 8 -30 18 -9 10 -32 26 -51 36 -77 39
-121 64 -138 78 -9 7 -30 20 -47 28 -16 8 -38 21 -48 29 -22 18 -57 39 -79 47
-10 3 -18 10 -18 15 0 5 -9 9 -20 9 -11 0 -20 5 -20 10 0 6 -18 10 -40 10 -22
0 -40 -4 -40 -10 0 -5 -20 -10 -44 -10 -25 0 -47 -4 -50 -9 -3 -5 -44 -12 -91
-16 -47 -4 -87 -11 -91 -16 -3 -5 -25 -9 -49 -9 -24 0 -47 -4 -50 -10 -3 -5
-26 -10 -51 -10 -24 0 -44 -4 -44 -10 0 -5 -20 -10 -44 -10 -25 0 -48 -4 -51
-10 -3 -5 -26 -10 -51 -10 -24 0 -44 -4 -44 -10 0 -5 -20 -10 -44 -10 -25 0
-48 -4 -51 -10 -3 -5 -26 -10 -51 -10 -24 0 -44 -4 -44 -10 0 -5 -20 -10 -44
-10 -25 0 -47 -4 -50 -9 -3 -5 -44 -12 -91 -16 -47 -4 -87 -11 -91 -16 -3 -5
-25 -9 -49 -9 -24 0 -47 -4 -50 -10 -3 -5 -26 -10 -51 -10 -24 0 -44 -4 -44
-10 0 -21 -85 -8 -135 21 -27 15 -60 33 -72 38 -11 5 -24 14 -27 20 -4 6 -24
18 -44 28 -20 9 -44 25 -53 35 -9 10 -22 18 -29 18 -7 0 -20 8 -29 18 -18 19
-46 38 -76 51 -12 5 -27 16 -34 25 -7 9 -19 16 -26 16 -6 0 -20 9 -30 20 -10
11 -23 20 -30 20 -7 0 -20 9 -30 20 -10 11 -23 20 -30 20 -6 0 -22 11 -35 25
-13 14 -29 25 -35 25 -7 0 -20 9 -30 20 -10 11 -24 20 -31 20 -8 0 -19 9 -26
20 -7 11 -20 20 -28 20 -9 0 -22 9 -30 20 -8 11 -22 20 -32 20 -10 0 -18 4
-18 8 0 9 -77 62 -89 62 -5 0 -16 9 -26 20 -10 11 -23 20 -30 20 -7 0 -20 9
-30 20 -10 11 -24 20 -30 20 -7 0 -18 7 -25 15 -7 9 -32 25 -54 36 -76 37
-121 64 -137 81 -9 10 -23 18 -32 18 -8 0 -17 4 -19 8 -5 13 -193 102 -216
102 -11 0 -24 5 -27 10 -3 6 -17 10 -31 10 -13 0 -24 5 -24 10 0 6 -11 10 -24
10 -14 0 -28 5 -31 10 -3 6 -17 10 -30 10 -13 0 -27 5 -30 10 -3 6 -26 10 -51
10 -24 0 -44 5 -44 10 0 6 -46 10 -119 10 -69 0 -122 -4 -126 -10 -3 -5 -26
-10 -51 -10 -24 0 -44 -4 -44 -10 0 -5 -13 -10 -30 -10 -16 0 -30 -4 -30 -10
0 -5 -8 -10 -18 -10 -10 0 -41 -11 -68 -25 -56 -29 -64 -30 -64 -12 0 8 -9 22
-19 31 -11 10 -23 30 -26 46 -3 15 -19 40 -35 55 -17 16 -30 34 -30 40 0 6
-13 24 -30 40 -16 16 -30 33 -30 39 0 14 -252 266 -266 266 -6 0 -21 11 -34
25 -13 14 -29 25 -35 25 -7 0 -20 9 -30 20 -10 11 -24 20 -32 20 -7 0 -13 4
-13 8 0 21 29 32 85 32 34 0 65 4 70 9 6 6 61 13 123 17 61 4 112 11 112 15 0
5 24 9 54 9 30 0 58 5 61 10 3 6 33 10 65 10 32 0 62 5 65 10 3 6 30 10 60 10
30 0 57 5 60 10 3 6 33 10 65 10 32 0 62 5 65 10 3 6 31 10 61 10 30 0 54 5
54 10 0 6 28 10 64 10 36 0 68 5 71 10 3 6 28 10 55 10 27 0 51 4 54 9 3 4 56
11 118 15 62 4 117 11 122 17 6 5 36 9 67 9 32 0 61 5 64 10 3 6 30 10 60 10
30 0 57 5 60 10 3 6 33 10 65 10 32 0 62 5 65 10 3 6 35 10 71 10 36 0 64 4
64 10 0 6 24 10 54 10 30 0 58 5 61 10 3 6 33 10 65 10 32 0 62 5 65 10 3 6
30 10 60 10 30 0 56 4 59 9 3 5 58 12 121 16 63 4 115 11 115 16 0 5 29 9 64
9 36 0 68 5 71 10 3 6 31 10 61 10 30 0 54 5 54 10 0 6 28 10 65 10 37 0 65 4
65 10 0 6 24 10 54 10 30 0 58 5 61 10 3 6 35 10 71 10 36 0 64 4 64 10 0 6
24 10 54 10 30 0 58 5 61 10 3 6 33 10 65 10 32 0 61 4 64 9 3 5 58 12 121 16
63 4 118 11 121 16 3 5 30 9 60 9 30 0 54 5 54 10 0 6 28 10 64 10 36 0 68 5
71 10 11 18 92 12 107 -8z m-4907 -442 c3 -5 46 -10 95 -10 49 0 92 -4 95 -10
3 -5 31 -10 61 -10 30 0 54 -4 54 -10 0 -5 15 -10 34 -10 19 0 38 -4 41 -10 3
-5 17 -10 30 -10 13 0 26 -4 29 -9 3 -4 22 -11 43 -14 41 -7 276 -121 307
-149 11 -10 25 -18 32 -18 7 0 21 -11 32 -25 11 -14 24 -25 29 -25 6 0 24 -13
41 -30 18 -16 35 -30 39 -30 11 0 193 -183 193 -193 0 -5 16 -25 35 -45 19
-20 35 -42 35 -47 0 -6 9 -17 20 -25 11 -8 20 -20 20 -26 0 -6 7 -17 15 -24 9
-7 25 -32 35 -55 10 -23 26 -47 34 -54 8 -7 18 -27 21 -44 7 -36 46 -120 58
-125 4 -2 7 -17 7 -33 0 -16 5 -29 10 -29 6 0 10 -11 10 -24 0 -14 5 -28 10
-31 6 -3 10 -21 10 -40 0 -19 5 -37 10 -40 6 -3 10 -22 10 -41 0 -19 5 -34 10
-34 6 0 10 -24 10 -54 0 -30 5 -58 10 -61 6 -4 10 -80 10 -195 0 -115 -4 -191
-10 -195 -5 -3 -10 -31 -10 -61 0 -30 -4 -54 -10 -54 -5 0 -10 -15 -10 -34 0
-19 -4 -38 -10 -41 -5 -3 -10 -21 -10 -40 0 -19 -4 -37 -10 -40 -5 -3 -10 -17
-10 -31 0 -13 -4 -24 -10 -24 -5 0 -10 -13 -10 -29 0 -16 -4 -31 -8 -33 -13
-5 -62 -113 -62 -135 0 -11 -7 -26 -15 -33 -9 -7 -23 -29 -32 -49 -10 -20 -25
-45 -35 -55 -10 -11 -18 -25 -18 -31 0 -6 -9 -17 -20 -25 -11 -8 -20 -19 -20
-25 0 -5 -16 -27 -35 -47 -19 -20 -35 -40 -35 -45 0 -10 -162 -173 -173 -173
-5 0 -26 -18 -47 -40 -21 -22 -44 -40 -52 -40 -7 0 -19 -9 -25 -19 -7 -11 -29
-28 -50 -37 -21 -10 -46 -24 -55 -32 -27 -22 -190 -102 -210 -102 -10 0 -18
-4 -18 -10 0 -5 -18 -13 -40 -16 -22 -4 -43 -11 -46 -15 -3 -5 -20 -9 -39 -9
-19 0 -37 -4 -40 -10 -3 -5 -17 -10 -31 -10 -13 0 -24 -4 -24 -10 0 -5 -24
-10 -54 -10 -30 0 -58 -4 -61 -10 -3 -6 -53 -10 -114 -10 -70 0 -111 -4 -119
-12 -9 -9 -12 -9 -12 0 0 9 -32 12 -115 12 -70 0 -115 4 -115 10 0 6 -20 10
-44 10 -25 0 -48 5 -51 10 -3 6 -21 10 -40 10 -19 0 -37 5 -40 10 -3 6 -17 10
-29 10 -13 0 -37 7 -52 15 -16 8 -39 15 -51 15 -12 0 -25 5 -28 10 -3 6 -14
10 -24 10 -21 0 -71 22 -71 33 0 4 -9 7 -20 7 -11 0 -20 5 -20 10 0 6 -7 10
-16 10 -9 0 -24 8 -33 18 -9 10 -32 26 -51 36 -63 32 -81 43 -109 70 -15 14
-32 26 -37 26 -5 0 -34 25 -64 55 -30 30 -59 55 -65 55 -14 0 -65 52 -65 66 0
5 -25 34 -55 64 -30 30 -55 59 -55 64 0 5 -12 22 -26 37 -25 26 -53 73 -91
152 -10 20 -21 37 -25 37 -5 0 -8 9 -8 19 0 11 -3 21 -7 23 -13 5 -53 88 -53
108 0 11 -4 22 -10 25 -5 3 -10 17 -10 30 0 13 -4 26 -9 30 -5 3 -13 30 -16
60 -4 31 -11 58 -16 61 -5 3 -9 25 -9 49 0 24 -4 47 -10 50 -5 3 -10 28 -10
55 0 27 -4 52 -10 55 -6 4 -10 70 -10 165 0 95 4 161 10 165 6 3 10 33 10 65
0 32 5 62 10 65 6 3 10 21 10 40 0 19 4 36 9 39 5 3 12 30 16 61 3 30 11 57
16 60 5 4 9 17 9 30 0 13 5 27 10 30 6 3 10 14 10 25 0 20 40 103 53 108 4 2
7 12 7 23 0 10 3 19 8 19 4 0 15 17 25 38 38 78 66 125 91 151 14 15 26 32 26
37 0 5 20 30 45 54 25 24 45 49 45 54 0 14 81 96 95 96 6 0 37 27 70 60 33 33
64 60 71 60 6 0 19 9 29 20 11 12 35 28 54 37 20 9 45 24 56 33 11 10 35 23
53 31 17 8 32 17 32 21 0 5 9 8 20 8 11 0 20 3 20 8 0 8 48 32 66 32 6 0 25 7
40 15 16 8 39 15 51 15 12 0 25 5 28 10 3 6 17 10 31 10 13 0 24 5 24 10 0 6
15 10 34 10 19 0 38 5 41 10 3 6 31 10 61 10 30 0 54 5 54 10 0 6 42 10 105
10 63 0 105 4 105 10 0 6 15 10 34 10 19 0 38 -4 41 -10z m-5520 -320 c4 -6
57 -10 125 -10 68 0 121 -4 125 -10 3 -5 42 -10 85 -10 43 0 82 -4 85 -10 3
-5 33 -10 65 -10 32 0 62 -4 65 -10 3 -5 30 -10 60 -10 30 0 57 -4 60 -10 3
-5 24 -10 45 -10 21 0 42 -4 45 -10 3 -5 24 -10 46 -10 21 0 47 -4 57 -10 9
-5 43 -12 74 -15 32 -4 60 -11 63 -16 4 -5 21 -9 40 -9 19 0 37 -4 40 -10 3
-5 19 -10 35 -10 16 0 32 -4 35 -10 3 -5 17 -10 30 -10 13 0 27 -4 30 -10 3
-5 17 -10 30 -10 13 0 27 -4 30 -10 3 -5 17 -10 31 -10 13 0 24 -4 24 -10 0
-5 14 -10 30 -10 17 0 30 -3 30 -7 0 -10 49 -33 69 -33 9 0 38 -11 65 -25 27
-14 54 -25 61 -25 17 0 65 -24 65 -32 0 -5 9 -8 20 -8 11 0 20 -4 20 -10 0 -5
9 -10 19 -10 11 0 21 -3 23 -7 4 -9 59 -41 144 -83 34 -16 67 -36 74 -45 7 -8
18 -15 24 -15 6 0 18 -9 26 -20 8 -11 21 -20 30 -20 9 0 22 -9 30 -20 8 -11
19 -20 25 -20 6 0 22 -11 37 -25 15 -14 32 -25 38 -25 5 0 26 -18 46 -40 20
-22 42 -40 48 -40 7 0 32 -20 56 -45 24 -25 49 -45 54 -45 14 0 196 -182 196
-195 0 -6 25 -35 55 -65 30 -30 55 -59 55 -65 0 -6 18 -29 40 -50 22 -21 40
-43 40 -47 0 -5 11 -21 25 -36 14 -15 25 -31 25 -37 0 -6 9 -17 20 -25 11 -8
20 -21 20 -30 0 -9 9 -22 20 -30 11 -8 20 -19 20 -24 0 -5 7 -18 16 -28 18
-19 35 -49 110 -198 26 -52 56 -102 66 -111 10 -9 18 -28 18 -43 0 -14 3 -26
8 -26 4 0 13 -15 21 -32 7 -18 20 -46 27 -62 8 -16 14 -35 14 -42 0 -7 9 -29
20 -49 11 -20 20 -44 20 -55 0 -11 5 -20 10 -20 6 0 10 -9 10 -20 0 -11 5 -20
10 -20 6 0 10 -11 10 -24 0 -14 5 -28 10 -31 6 -3 10 -17 10 -30 0 -13 5 -27
10 -30 6 -3 10 -17 10 -30 0 -13 4 -26 9 -29 5 -3 12 -30 16 -61 3 -30 11 -57
16 -60 5 -4 9 -21 9 -40 0 -19 5 -37 10 -40 6 -3 10 -22 10 -41 0 -19 5 -34
10 -34 6 0 10 -20 10 -44 0 -25 5 -48 10 -51 6 -3 10 -26 10 -50 0 -24 5 -47
10 -50 6 -3 10 -28 10 -55 0 -27 5 -52 10 -55 6 -3 10 -37 10 -75 0 -38 5 -72
10 -75 6 -3 10 -50 10 -105 0 -55 4 -102 10 -105 14 -8 14 -442 0 -450 -6 -4
-10 -60 -10 -135 0 -75 -4 -131 -10 -135 -5 -3 -10 -33 -10 -65 0 -32 -5 -62
-10 -65 -5 -3 -10 -33 -10 -65 0 -32 -4 -62 -10 -65 -5 -3 -10 -26 -10 -50 0
-24 -4 -47 -10 -50 -5 -3 -10 -22 -10 -41 0 -19 -4 -34 -10 -34 -5 0 -10 -20
-10 -44 0 -25 -4 -48 -10 -51 -5 -3 -10 -21 -10 -40 0 -19 -4 -36 -9 -39 -5
-3 -12 -26 -15 -51 -4 -24 -11 -47 -17 -50 -5 -4 -9 -17 -9 -30 0 -13 -4 -27
-10 -30 -5 -3 -10 -21 -10 -40 0 -19 -4 -37 -10 -40 -5 -3 -10 -17 -10 -31 0
-13 -4 -24 -10 -24 -5 0 -10 -9 -10 -20 0 -11 -4 -20 -10 -20 -5 0 -10 -9 -10
-20 0 -11 -4 -20 -10 -20 -5 0 -10 -9 -10 -19 0 -11 -9 -36 -19 -58 -38 -75
-51 -106 -51 -122 0 -9 -9 -23 -20 -31 -11 -8 -20 -22 -20 -32 0 -10 -4 -18
-10 -18 -5 0 -10 -9 -10 -19 0 -11 -4 -21 -8 -23 -4 -2 -25 -37 -46 -78 -65
-129 -83 -160 -100 -178 -9 -10 -16 -23 -16 -28 0 -5 -9 -16 -20 -24 -11 -8
-20 -21 -20 -30 0 -9 -9 -22 -20 -30 -11 -8 -20 -22 -20 -31 0 -9 -7 -19 -15
-23 -8 -3 -15 -11 -15 -18 0 -7 -14 -27 -30 -45 -17 -18 -30 -36 -30 -41 0 -4
-13 -21 -30 -37 -16 -16 -30 -33 -30 -39 0 -14 -191 -206 -205 -206 -6 0 -33
-22 -60 -50 -27 -27 -54 -50 -60 -50 -6 0 -26 -16 -45 -35 -19 -19 -38 -35
-43 -35 -5 0 -22 -13 -37 -30 -15 -16 -32 -30 -37 -30 -6 0 -18 -9 -28 -20
-10 -11 -24 -20 -30 -20 -7 0 -19 -7 -26 -16 -7 -9 -22 -20 -34 -25 -31 -15
-63 -34 -82 -50 -10 -8 -31 -21 -48 -29 -16 -8 -38 -21 -47 -28 -23 -19 -249
-132 -264 -132 -7 0 -38 -13 -69 -30 -31 -16 -66 -30 -76 -30 -10 0 -19 -4
-19 -10 0 -5 -8 -10 -19 -10 -10 0 -32 -7 -47 -15 -16 -8 -39 -15 -51 -15 -12
0 -25 -4 -28 -10 -3 -5 -17 -10 -30 -10 -13 0 -27 -4 -30 -10 -3 -5 -17 -10
-31 -10 -13 0 -24 -4 -24 -10 0 -5 -11 -10 -24 -10 -14 0 -28 -4 -31 -10 -3
-5 -21 -10 -40 -10 -19 0 -37 -4 -40 -10 -3 -5 -17 -10 -30 -10 -13 0 -27 -4
-30 -10 -3 -5 -17 -10 -31 -10 -13 0 -24 -4 -24 -10 0 -5 -15 -10 -34 -10 -19
0 -37 -4 -40 -9 -4 -5 -40 -12 -81 -16 -42 -4 -78 -11 -81 -16 -3 -5 -20 -9
-39 -9 -19 0 -37 -4 -40 -10 -3 -5 -31 -10 -61 -10 -30 0 -54 -4 -54 -10 0 -6
-35 -10 -85 -10 -50 0 -85 -4 -85 -10 0 -6 -46 -10 -119 -10 -69 0 -122 -4
-126 -10 -4 -7 -633 -10 -1856 -10 l-1849 0 0 95 0 95 214 0 c133 0 217 4 221
10 3 6 28 10 55 10 27 0 52 5 55 10 3 6 19 10 35 10 16 0 45 9 65 20 20 11 44
20 54 20 9 0 28 11 41 25 13 14 27 25 32 25 10 0 112 100 121 120 4 8 16 29
26 45 11 17 20 44 20 62 1 17 6 35 11 38 6 3 10 31 10 61 0 30 5 54 10 54 6 0
10 42 10 105 0 63 4 105 10 105 7 0 10 877 10 2610 0 1733 -3 2610 -10 2610
-6 0 -10 45 -10 115 0 70 -4 115 -10 115 -5 0 -10 24 -10 54 0 30 -4 58 -10
61 -5 3 -10 22 -10 41 0 19 -4 34 -10 34 -5 0 -10 7 -10 15 0 8 -11 25 -25 39
-14 14 -25 28 -25 33 0 12 -73 83 -86 83 -6 0 -25 16 -41 35 -21 24 -39 35
-57 35 -14 0 -26 5 -26 10 0 6 -11 10 -24 10 -14 0 -28 5 -31 10 -3 6 -17 10
-30 10 -13 0 -27 5 -30 10 -3 6 -33 10 -65 10 -32 0 -62 5 -65 10 -4 6 -85 10
-211 10 l-204 0 0 88 c0 49 3 92 7 95 11 12 3611 8 3618 -3z m11225 -4829 c0
-1236 3 -1872 10 -1876 6 -3 10 -23 10 -44 0 -38 19 -91 33 -91 4 0 7 -7 7
-15 0 -36 47 -65 117 -72 l68 -8 0 -45 0 -45 -378 -3 -378 -2 3 47 3 48 57 6
c58 6 108 40 108 74 0 8 3 15 8 15 14 0 32 55 32 101 0 26 5 51 10 54 7 4 10
540 10 1575 0 1035 -3 1571 -10 1575 -5 3 -10 27 -10 53 0 27 -9 66 -22 94
-23 47 -24 48 -71 48 -45 0 -84 -14 -99 -35 -4 -5 -10 -1 -13 10 -4 11 -12 30
-18 43 -9 18 -6 26 13 47 13 14 29 25 35 25 6 0 24 14 40 30 16 17 34 30 40
30 7 0 20 9 30 20 10 11 23 20 30 20 6 0 22 12 36 26 13 14 33 30 44 35 33 15
58 33 86 62 15 15 33 27 41 27 7 0 20 9 28 20 11 15 26 20 57 20 l43 0 0
-1869z m970 -49 c3 -1322 8 -1915 16 -1920 5 -4 17 -23 26 -42 28 -59 56 -78
128 -87 l65 -8 3 -48 3 -47 -378 2 -378 3 -3 33 c-5 45 10 59 68 64 28 3 59
13 70 23 35 32 70 115 70 167 0 26 5 48 10 48 7 0 10 533 10 1580 0 1047 -3
1580 -10 1580 -5 0 -10 21 -10 47 0 28 -9 67 -22 95 -22 46 -25 48 -65 48 -24
0 -58 -9 -77 -20 -39 -22 -41 -21 -50 34 -6 31 -4 42 13 57 11 11 24 19 28 19
4 0 22 14 40 30 18 17 36 30 41 30 5 0 17 9 27 20 10 11 23 20 30 20 6 0 22
12 36 26 13 14 33 30 44 35 40 19 67 37 94 63 15 14 32 26 37 26 6 0 19 9 29
20 14 16 29 20 59 18 l41 -3 5 -1913z m-5280 1678 l0 -50 -40 0 c-22 0 -50 -6
-63 -12 -42 -24 -86 -71 -92 -99 -4 -16 -11 -31 -16 -34 -12 -8 -12 -180 1
-203 5 -9 12 -61 15 -114 4 -54 11 -98 16 -98 5 0 9 -20 9 -44 0 -25 5 -48 10
-51 6 -3 10 -26 10 -50 0 -24 5 -47 10 -50 6 -3 10 -24 10 -45 0 -21 5 -42 10
-45 6 -3 10 -26 10 -50 0 -24 5 -47 10 -50 6 -3 10 -22 10 -41 0 -19 5 -34 10
-34 6 0 10 -20 10 -44 0 -25 5 -48 10 -51 6 -3 10 -26 10 -50 0 -24 4 -46 9
-49 5 -3 12 -39 16 -81 4 -41 11 -77 16 -81 5 -3 9 -25 9 -50 0 -24 5 -44 10
-44 6 0 10 -20 10 -44 0 -25 5 -48 10 -51 6 -3 10 -21 10 -40 0 -19 5 -37 10
-40 6 -3 10 -24 10 -45 0 -21 5 -42 10 -45 6 -3 10 -26 10 -50 0 -24 5 -47 10
-50 6 -3 10 -22 10 -41 0 -19 5 -34 10 -34 6 0 10 -20 10 -44 0 -25 4 -47 9
-50 5 -3 12 -44 16 -91 4 -47 11 -87 16 -91 5 -3 9 -20 9 -39 0 -19 5 -37 10
-40 6 -3 10 -26 10 -51 0 -24 5 -44 10 -44 6 0 10 -20 10 -44 0 -25 5 -48 10
-51 6 -3 10 -21 10 -40 0 -19 5 -37 10 -40 6 -3 10 -24 10 -45 0 -21 5 -42 10
-45 6 -3 10 -26 10 -50 0 -24 5 -47 10 -50 6 -3 10 -23 10 -44 0 -20 4 -41 9
-47 5 -5 11 -25 14 -44 3 -30 4 -28 5 13 1 26 7 47 12 47 6 0 10 20 10 44 0
25 5 48 10 51 6 3 10 31 10 61 0 30 5 54 10 54 6 0 10 20 10 44 0 25 5 48 10
51 6 3 10 26 10 50 0 24 5 47 10 50 6 3 10 28 10 55 0 27 5 52 10 55 6 3 10
25 10 49 0 23 4 46 9 52 6 5 13 51 17 102 4 51 11 95 15 98 5 3 9 23 9 44 0
21 5 42 10 45 6 3 10 26 10 50 0 24 5 47 10 50 6 3 10 28 10 55 0 27 5 52 10
55 6 3 10 26 10 50 0 24 5 47 10 50 6 3 10 26 10 51 0 24 5 44 10 44 6 0 10
20 10 44 0 25 5 48 10 51 6 3 10 31 10 61 0 30 5 54 10 54 6 0 10 19 10 43 0
24 5 48 12 55 7 7 11 53 11 127 0 74 -4 120 -11 127 -7 7 -12 24 -12 39 0 15
-4 31 -10 34 -5 3 -10 26 -10 50 0 24 -4 47 -10 50 -5 3 -10 26 -10 51 0 24
-4 44 -10 44 -5 0 -10 20 -10 44 0 25 -4 48 -10 51 -5 3 -10 26 -10 50 0 24
-4 47 -10 50 -5 3 -10 17 -10 31 0 13 -4 32 -9 42 -13 26 -31 86 -31 104 0 9
-7 29 -15 44 -8 16 -15 39 -15 52 0 12 -4 22 -10 22 -5 0 -10 6 -10 13 0 7 -9
23 -20 35 -11 12 -20 25 -20 30 0 14 -42 48 -77 63 -18 8 -33 17 -33 21 0 4
-17 8 -37 10 -38 3 -38 3 -38 48 l0 45 450 0 450 0 0 -45 0 -45 -55 -3 c-58
-3 -109 -21 -130 -47 -7 -9 -24 -37 -37 -62 -21 -42 -23 -59 -23 -185 0 -85 4
-138 10 -138 6 0 10 -24 10 -54 0 -30 5 -58 10 -61 6 -3 10 -28 10 -55 0 -27
5 -52 10 -55 6 -3 10 -26 10 -50 0 -24 5 -47 10 -50 6 -3 10 -22 10 -41 0 -19
5 -34 10 -34 6 0 10 -20 10 -44 0 -25 5 -48 10 -51 6 -3 10 -25 10 -49 0 -23
4 -46 10 -52 5 -5 12 -42 16 -82 4 -40 11 -75 15 -78 5 -3 9 -25 9 -50 0 -24
5 -44 10 -44 6 0 10 -20 10 -44 0 -25 5 -48 10 -51 6 -3 10 -21 10 -40 0 -19
5 -37 10 -40 6 -3 10 -26 10 -51 0 -24 5 -44 10 -44 6 0 10 -20 10 -44 0 -25
5 -48 10 -51 6 -3 10 -22 10 -41 0 -19 5 -34 10 -34 6 0 10 -20 10 -44 0 -25
4 -47 9 -50 4 -3 12 -42 15 -86 4 -44 12 -80 17 -80 5 0 9 -20 9 -44 0 -25 5
-48 10 -51 6 -3 10 -26 10 -51 0 -24 5 -44 10 -44 6 0 10 -20 10 -44 0 -25 5
-48 10 -51 6 -3 10 -21 10 -40 0 -19 5 -37 10 -40 6 -3 10 -24 10 -45 0 -21 5
-42 10 -45 6 -3 10 -26 10 -50 0 -24 5 -47 10 -50 6 -3 10 -21 10 -40 0 -19 5
-37 10 -40 6 -4 10 -21 10 -38 0 -54 12 -132 21 -141 5 -6 9 -25 9 -43 0 -18
5 -33 10 -33 6 0 10 15 10 34 0 19 5 38 10 41 6 3 10 26 10 51 0 24 5 44 10
44 6 0 10 15 10 34 0 19 5 38 10 41 6 3 10 26 10 51 0 24 5 44 10 44 6 0 10
20 10 44 0 25 4 47 9 50 5 4 12 40 16 81 4 42 11 78 16 81 5 3 9 20 9 39 0 19
5 37 10 40 6 3 10 26 10 50 0 24 5 47 10 50 6 3 10 24 10 45 0 21 5 42 10 45
6 3 10 21 10 40 0 19 5 37 10 40 6 3 10 26 10 51 0 24 5 44 10 44 6 0 10 15
10 34 0 19 5 38 10 41 6 3 10 26 10 50 0 24 4 46 9 49 5 3 12 39 16 81 4 41
11 77 16 81 5 3 9 25 9 49 0 24 5 47 10 50 6 3 10 24 10 45 0 21 5 42 10 45 6
3 10 21 10 40 0 19 5 37 10 40 6 3 10 26 10 51 0 24 5 44 10 44 6 0 10 15 10
34 0 19 5 38 10 41 6 3 10 26 10 50 0 24 5 47 10 50 6 3 10 24 10 45 0 21 4
41 9 44 5 4 12 40 16 81 4 42 11 78 16 81 5 3 9 25 9 49 0 24 5 47 10 50 6 3
10 31 10 61 0 30 5 54 10 54 6 0 10 24 10 54 0 30 5 58 10 61 6 3 10 50 10
105 0 55 -4 102 -10 105 -5 3 -10 15 -10 26 0 51 -69 119 -121 119 -10 0 -21
5 -24 10 -3 6 -26 10 -51 10 l-44 0 0 50 0 50 348 -2 347 -3 0 -45 c0 -40 -3
-45 -25 -48 -14 -2 -29 -8 -34 -13 -6 -5 -19 -9 -31 -9 -12 0 -36 -15 -54 -34
-35 -36 -101 -159 -101 -188 0 -10 -4 -18 -10 -18 -5 0 -10 -18 -10 -40 0 -22
-4 -40 -10 -40 -5 0 -10 -15 -10 -34 0 -19 -4 -38 -10 -41 -5 -3 -10 -25 -10
-49 0 -23 -4 -46 -10 -52 -5 -5 -12 -42 -16 -82 -4 -40 -11 -75 -15 -78 -5 -3
-9 -25 -9 -50 0 -24 -4 -44 -10 -44 -5 0 -10 -20 -10 -44 0 -25 -4 -48 -10
-51 -5 -3 -10 -21 -10 -40 0 -19 -4 -37 -10 -40 -5 -3 -10 -24 -10 -45 0 -21
-4 -42 -10 -45 -5 -3 -10 -26 -10 -50 0 -24 -4 -47 -10 -50 -5 -3 -10 -22 -10
-41 0 -19 -4 -34 -10 -34 -5 0 -10 -20 -10 -44 0 -25 -4 -47 -9 -50 -4 -3 -11
-38 -15 -78 -4 -40 -11 -77 -16 -82 -6 -6 -10 -29 -10 -52 0 -24 -4 -46 -10
-49 -5 -3 -10 -26 -10 -51 0 -24 -4 -44 -10 -44 -5 0 -10 -15 -10 -34 0 -19
-4 -38 -10 -41 -5 -3 -10 -26 -10 -51 0 -24 -4 -44 -10 -44 -5 0 -10 -20 -10
-44 0 -25 -4 -48 -10 -51 -5 -3 -10 -21 -10 -40 0 -19 -4 -37 -10 -40 -5 -3
-10 -26 -10 -51 0 -24 -4 -44 -9 -44 -5 0 -13 -36 -17 -80 -3 -44 -11 -83 -15
-86 -5 -3 -9 -23 -9 -44 0 -21 -4 -42 -10 -45 -5 -3 -10 -21 -10 -40 0 -19 -4
-37 -10 -40 -5 -3 -10 -26 -10 -51 0 -24 -4 -44 -10 -44 -5 0 -10 -20 -10 -44
0 -25 -4 -48 -10 -51 -5 -3 -10 -21 -10 -40 0 -19 -4 -37 -10 -40 -5 -3 -10
-24 -10 -45 0 -21 -4 -42 -10 -45 -5 -3 -10 -26 -10 -50 0 -24 -4 -46 -9 -49
-5 -4 -12 -40 -16 -81 -4 -42 -11 -78 -16 -81 -5 -3 -9 -20 -9 -39 0 -19 -4
-37 -10 -40 -5 -3 -10 -26 -10 -51 0 -24 -4 -44 -10 -44 -5 0 -10 -20 -10 -44
0 -25 -4 -48 -10 -51 -5 -3 -10 -21 -10 -40 0 -19 -4 -37 -10 -40 -5 -3 -10
-24 -10 -45 0 -21 -4 -42 -10 -45 -5 -3 -10 -26 -10 -50 0 -24 -4 -47 -10 -50
-5 -3 -10 -22 -10 -41 0 -19 -4 -34 -9 -34 -4 0 -12 -42 -17 -92 l-9 -93 -45
0 c-45 0 -45 0 -48 38 -2 20 -7 37 -13 37 -5 0 -9 20 -9 44 0 25 -4 48 -10 51
-5 3 -10 26 -10 50 0 24 -4 47 -10 50 -5 3 -10 19 -10 35 0 16 -4 31 -9 34 -5
3 -12 46 -16 96 -4 49 -11 90 -16 90 -5 0 -9 20 -9 44 0 25 -4 48 -10 51 -5 3
-10 21 -10 40 0 19 -4 37 -10 40 -5 3 -10 24 -10 45 0 21 -4 42 -10 45 -5 3
-10 26 -10 50 0 24 -4 47 -10 50 -5 3 -10 22 -10 41 0 19 -4 34 -10 34 -5 0
-10 20 -10 44 0 25 -4 48 -10 51 -5 3 -10 25 -10 49 0 23 -4 46 -10 52 -5 5
-12 42 -16 82 -4 40 -11 75 -15 78 -5 3 -9 25 -9 49 0 24 -4 47 -10 50 -5 3
-10 24 -10 45 0 21 -4 42 -10 45 -5 3 -10 21 -10 40 0 19 -4 37 -10 40 -5 3
-10 26 -10 51 0 24 -4 44 -10 44 -5 0 -10 20 -10 44 0 25 -4 48 -10 51 -5 3
-10 22 -10 41 0 19 -4 34 -10 34 -5 0 -10 20 -10 44 0 25 -4 47 -9 50 -4 3
-12 42 -15 86 -4 44 -12 80 -17 80 -5 0 -9 20 -9 44 0 25 -4 48 -10 51 -5 3
-10 26 -10 51 0 24 -4 44 -10 44 -5 0 -10 20 -10 45 0 25 -4 45 -10 45 -5 0
-10 -18 -10 -39 0 -22 -4 -43 -10 -46 -5 -3 -10 -26 -10 -50 0 -24 -4 -47 -10
-50 -5 -3 -10 -26 -10 -51 0 -24 -4 -44 -9 -44 -5 0 -12 -45 -16 -100 -3 -55
-11 -102 -16 -105 -5 -4 -9 -24 -9 -45 0 -21 -4 -42 -10 -45 -5 -3 -10 -26
-10 -50 0 -24 -4 -47 -10 -50 -5 -3 -10 -28 -10 -55 0 -27 -4 -52 -10 -55 -5
-3 -10 -26 -10 -50 0 -24 -4 -47 -10 -50 -5 -3 -10 -24 -10 -45 0 -21 -4 -42
-10 -45 -5 -3 -10 -26 -10 -50 0 -24 -4 -47 -10 -50 -5 -3 -10 -28 -10 -55 0
-27 -4 -51 -9 -54 -5 -3 -12 -46 -16 -96 -4 -49 -11 -90 -16 -90 -5 0 -9 -24
-9 -54 0 -30 -4 -58 -10 -61 -5 -3 -10 -26 -10 -51 0 -24 -4 -44 -10 -44 -5 0
-10 -20 -10 -44 0 -25 -4 -48 -10 -51 -5 -3 -10 -26 -10 -50 0 -24 -4 -47 -10
-50 -5 -3 -10 -28 -10 -55 0 -27 -4 -52 -10 -55 -5 -3 -10 -26 -10 -50 0 -24
-4 -47 -10 -50 -5 -3 -10 -24 -10 -45 0 -21 -4 -42 -10 -45 -5 -3 -10 -26 -10
-50 0 -24 -4 -46 -9 -49 -5 -3 -12 -48 -16 -100 -8 -115 -19 -129 -91 -124
-48 3 -49 4 -52 38 -2 19 -8 39 -13 45 -5 5 -9 26 -9 46 0 21 -4 40 -9 43 -5
3 -12 46 -16 96 -4 50 -11 93 -16 96 -5 3 -9 18 -9 34 0 16 -4 32 -10 35 -5 3
-10 26 -10 50 0 24 -4 47 -10 50 -5 3 -10 24 -10 45 0 21 -4 42 -10 45 -5 3
-10 21 -10 40 0 19 -4 37 -10 40 -5 3 -10 26 -10 51 0 24 -4 44 -10 44 -5 0
-10 20 -10 44 0 25 -4 48 -10 51 -5 3 -10 21 -10 40 0 19 -4 36 -9 39 -5 4
-12 44 -16 91 -4 47 -11 88 -16 91 -5 3 -9 20 -9 39 0 19 -4 37 -10 40 -5 3
-10 24 -10 45 0 21 -4 42 -10 45 -5 3 -10 26 -10 50 0 24 -4 47 -10 50 -5 3
-10 22 -10 41 0 19 -4 34 -10 34 -5 0 -10 20 -10 44 0 25 -4 48 -10 51 -5 3
-10 26 -10 51 0 24 -4 44 -10 44 -5 0 -10 15 -10 34 0 19 -4 37 -9 40 -5 3
-12 46 -16 96 -4 49 -11 90 -16 90 -5 0 -9 20 -9 44 0 25 -4 48 -10 51 -5 3
-10 21 -10 40 0 19 -4 37 -10 40 -5 3 -10 24 -10 45 0 21 -4 42 -10 45 -5 3
-10 26 -10 50 0 24 -4 47 -10 50 -5 3 -10 22 -10 41 0 19 -4 34 -10 34 -5 0
-10 20 -10 44 0 25 -4 48 -10 51 -5 3 -10 25 -10 49 0 23 -4 46 -10 52 -5 5
-12 42 -16 82 -4 40 -11 75 -15 78 -5 3 -9 25 -9 50 0 24 -4 44 -10 44 -5 0
-10 15 -10 34 0 19 -4 38 -10 41 -5 3 -10 26 -10 50 0 24 -4 47 -10 50 -5 3
-10 24 -10 45 0 21 -4 42 -10 45 -5 3 -10 21 -10 40 0 19 -4 37 -10 40 -5 3
-10 26 -10 51 0 24 -4 44 -10 44 -5 0 -10 20 -10 44 0 25 -4 47 -9 50 -5 4
-12 40 -16 81 -4 42 -11 78 -16 81 -5 3 -9 20 -9 39 0 19 -4 37 -10 40 -5 3
-10 17 -10 30 0 13 -4 27 -10 30 -5 3 -10 16 -10 28 0 13 -9 29 -20 37 -11 8
-20 20 -20 28 0 23 -65 72 -95 72 -8 0 -15 4 -15 9 0 6 -17 11 -37 13 -35 3
-38 6 -41 36 -6 66 -33 62 428 62 l420 0 0 -50z m3048 -1128 c9 -5 27 -14 39
-20 13 -7 31 -12 41 -12 11 0 27 -9 37 -20 10 -11 23 -20 29 -20 13 0 136
-121 136 -134 0 -5 7 -18 17 -28 19 -21 35 -47 60 -100 10 -21 21 -38 25 -38
5 0 8 -9 8 -20 0 -11 9 -35 20 -55 11 -20 20 -49 20 -65 0 -16 5 -32 10 -35 6
-3 10 -17 10 -30 0 -13 5 -27 10 -30 6 -3 10 -24 10 -45 0 -21 5 -42 10 -45 6
-3 10 -40 10 -81 0 -43 4 -74 10 -74 11 0 14 -177 4 -204 -5 -14 -62 -16 -540
-16 l-534 0 0 -135 c0 -83 4 -135 10 -135 6 0 10 -35 10 -85 0 -50 4 -85 10
-85 6 0 10 -24 10 -54 0 -30 4 -57 9 -60 4 -3 11 -33 15 -66 4 -33 11 -60 16
-60 6 0 10 -13 10 -30 0 -16 5 -30 10 -30 6 0 10 -9 10 -20 0 -11 9 -35 20
-55 11 -20 20 -42 20 -49 0 -19 28 -72 45 -86 8 -7 15 -19 15 -27 0 -7 7 -16
15 -19 8 -4 15 -12 15 -20 0 -14 145 -164 158 -164 4 0 29 -11 56 -25 40 -20
64 -25 127 -25 43 0 81 5 84 10 3 6 15 10 26 10 54 0 175 124 229 235 22 45
40 88 40 97 0 9 5 20 10 23 6 3 10 17 10 30 0 13 5 27 10 30 6 3 10 17 10 31
0 13 5 24 10 24 6 0 10 15 10 34 0 41 23 65 45 46 17 -14 21 -105 5 -115 -5
-3 -10 -31 -10 -61 0 -30 -4 -54 -10 -54 -5 0 -10 -15 -10 -34 0 -19 -4 -38
-10 -41 -5 -3 -10 -21 -10 -40 0 -19 -4 -37 -10 -40 -5 -3 -10 -17 -10 -31 0
-13 -4 -24 -10 -24 -5 0 -10 -13 -10 -30 0 -16 -4 -30 -10 -30 -5 0 -10 -9
-10 -20 0 -11 -9 -35 -20 -55 -11 -20 -20 -42 -20 -51 0 -22 -37 -99 -55 -114
-8 -7 -15 -19 -15 -26 0 -8 -4 -14 -10 -14 -5 0 -10 -7 -10 -16 0 -9 -16 -31
-36 -48 -20 -17 -40 -41 -45 -53 -5 -13 -17 -26 -26 -30 -10 -4 -30 -19 -45
-35 -14 -15 -33 -28 -42 -28 -9 0 -16 -3 -16 -7 0 -11 -50 -33 -71 -33 -10 0
-21 -4 -24 -10 -3 -5 -44 -10 -90 -10 -46 0 -87 5 -90 10 -3 6 -14 10 -24 10
-22 0 -116 47 -131 65 -7 8 -18 15 -24 15 -14 0 -96 82 -96 96 0 6 -11 21 -25
34 -14 13 -25 29 -25 36 0 6 -6 17 -14 23 -18 15 -122 225 -132 264 -3 15 -10
30 -15 33 -5 3 -9 20 -9 39 0 19 -4 37 -10 40 -5 3 -10 17 -10 30 0 13 -4 27
-10 30 -5 3 -10 26 -10 51 0 24 -4 44 -10 44 -5 0 -10 24 -10 54 0 30 -4 58
-10 61 -5 3 -10 42 -10 85 0 43 -4 82 -10 85 -6 4 -10 103 -10 266 0 166 4
259 10 259 6 0 10 38 10 95 0 57 4 95 10 95 6 0 10 24 10 54 0 30 5 58 10 61
6 3 10 26 10 51 0 24 5 44 10 44 6 0 10 15 10 34 0 19 5 38 10 41 6 3 10 17
10 30 0 13 4 26 9 29 5 3 12 27 16 52 6 42 20 80 35 94 3 3 27 48 53 101 26
53 56 104 67 114 11 10 20 23 20 29 0 14 121 136 136 136 6 0 17 7 24 15 16
19 68 45 91 45 10 0 21 5 24 10 3 6 17 10 30 10 13 0 27 5 30 10 7 12 158 13
183 2z"/>
<path d="M11157 19243 c-12 -11 -8 -5601 3 -5608 6 -4 10 -75 10 -180 0 -105
4 -176 10 -180 6 -3 10 -21 10 -39 0 -20 8 -40 20 -51 11 -10 20 -23 20 -30 0
-14 42 -55 57 -55 5 0 18 -9 27 -19 10 -11 31 -23 47 -26 16 -4 31 -11 34 -16
4 -5 17 -9 30 -9 13 0 27 -4 30 -10 3 -5 24 -10 45 -10 21 0 42 -4 45 -10 4
-6 85 -10 210 -10 125 0 206 4 210 10 3 6 33 10 65 10 32 0 62 5 65 10 3 6 26
10 50 10 24 0 46 4 49 9 3 4 33 11 67 15 33 4 76 16 95 27 19 10 43 19 54 19
10 0 22 5 25 10 3 6 14 10 24 10 21 0 71 22 71 33 0 4 9 7 20 7 11 0 20 5 20
10 0 6 6 10 14 10 7 0 19 7 26 15 7 9 32 24 54 35 23 10 50 28 60 39 11 12 24
21 31 21 6 0 29 18 50 40 21 22 44 40 50 40 13 0 105 92 105 106 0 5 23 32 50
59 28 27 50 54 50 61 0 6 7 18 16 25 9 7 20 22 25 34 16 34 35 64 52 83 10 10
17 24 17 30 0 7 5 12 10 12 6 0 10 9 10 19 0 11 4 21 8 23 12 5 109 209 133
281 7 20 17 37 21 37 4 0 8 9 8 20 0 11 9 35 20 55 11 20 20 44 20 55 0 10 5
22 10 25 6 3 10 17 10 30 0 13 5 27 10 30 6 3 10 19 10 35 0 16 5 32 10 35 6
3 10 17 10 30 0 13 4 26 9 29 5 3 12 37 16 76 4 38 11 70 16 70 5 0 9 20 9 44
0 25 5 48 10 51 6 3 10 26 10 50 0 24 5 47 10 50 6 3 10 24 10 45 0 21 5 42
10 45 6 3 10 35 10 70 0 35 5 67 10 70 6 3 10 33 10 65 0 32 5 62 10 65 6 3
10 46 10 95 0 49 5 92 10 95 6 4 10 57 10 125 0 68 4 121 10 125 6 4 10 158
10 430 0 272 -4 426 -10 430 -6 4 -10 60 -10 136 0 79 -4 129 -10 129 -6 0
-10 35 -10 85 0 50 -4 85 -10 85 -6 0 -10 28 -10 64 0 36 -4 68 -10 71 -5 3
-10 33 -10 65 0 32 -4 62 -10 65 -5 3 -10 30 -10 60 0 30 -4 57 -10 60 -5 3
-10 22 -10 41 0 19 -4 34 -10 34 -5 0 -10 20 -10 44 0 25 -4 47 -9 50 -5 3
-12 37 -16 76 -4 38 -11 70 -16 70 -5 0 -9 11 -9 24 0 14 -4 28 -10 31 -5 3
-10 21 -10 40 0 19 -4 37 -10 40 -5 3 -10 17 -10 31 0 13 -4 24 -10 24 -5 0
-10 14 -10 30 0 17 -4 30 -10 30 -5 0 -10 9 -10 20 0 11 -9 35 -20 55 -11 20
-20 42 -20 50 0 8 -9 30 -20 50 -11 20 -20 42 -20 49 0 15 -112 239 -131 262
-15 18 -34 50 -48 79 -5 12 -16 27 -25 34 -9 7 -16 19 -16 25 0 6 -9 18 -20
26 -11 8 -20 21 -20 30 0 8 -18 30 -40 49 -22 19 -40 40 -40 46 0 13 -183 198
-202 204 -7 2 -29 21 -50 43 -20 21 -43 38 -51 38 -8 0 -17 7 -21 15 -3 8 -16
20 -28 26 -33 14 -65 34 -85 50 -10 9 -49 31 -88 50 -38 18 -71 37 -73 41 -2
5 -17 8 -33 8 -16 0 -29 4 -29 9 0 4 -27 11 -60 15 -33 4 -62 11 -65 16 -4 6
-31 10 -61 10 -30 0 -54 5 -54 10 0 6 -24 10 -54 10 -30 0 -58 5 -61 10 -3 6
-42 10 -85 10 -43 0 -82 5 -85 10 -3 6 -50 10 -105 10 -55 0 -102 4 -105 10
-7 11 -397 14 -408 3z"/>
<path d="M21761 15105 c-47 -25 -141 -112 -141 -131 0 -6 -7 -17 -15 -24 -17
-14 -45 -67 -45 -85 0 -7 -7 -26 -15 -41 -8 -16 -15 -37 -15 -46 0 -9 -4 -20
-10 -23 -5 -3 -10 -26 -10 -50 0 -24 -4 -47 -10 -50 -5 -3 -10 -31 -10 -61 0
-30 -4 -54 -10 -54 -5 0 -10 -25 -10 -55 l0 -55 360 0 360 0 0 79 c0 44 -4 83
-10 86 -5 3 -10 37 -10 75 0 38 -4 72 -10 75 -5 3 -10 21 -10 40 0 19 -4 37
-10 40 -5 3 -10 17 -10 30 0 13 -4 25 -8 27 -4 2 -20 28 -34 58 -30 61 -106
140 -155 161 -18 8 -33 17 -33 21 0 17 -97 5 -139 -17z"/>
</g>
</svg>
